<?xml version="1.0" encoding="UTF-8"?>
<svg id="Layer_1" data-name="Layer 1" xmlns="http://www.w3.org/2000/svg" viewBox="0 0 239.5 89.03">
  <defs>
    <style>
      .cls-1 {
        fill: #0067a6;
      }

      .cls-2 {
        fill: #fff;
      }

      .cls-3 {
        fill: none;
        stroke: #0067a6;
        stroke-linecap: square;
        stroke-miterlimit: 2;
        stroke-width: 2px;
      }
    </style>
  </defs>
  <path class="cls-2" d="M221.38,21.98c7.23,4.88,15.01,10.48,16.83,19.39,2.41,13.87-10.64,22.12-21.03,28.33-39.73,18.61-85.51,20.58-131.07,16.65-25.32-3.48-52.32-7.85-73.43-23.37C4.66,57.37-1,48.43,1.67,38.77c5.59-14.02,19.34-20.27,32.27-24.85C85.02-3.52,147.89-2.67,199.73,12.62c7.5,2.32,14.58,5.76,21.66,9.36Z"/>
  <path class="cls-3" d="M221.38,21.98c7.23,4.88,15.01,10.48,16.83,19.39,2.41,13.87-10.64,22.12-21.03,28.33-39.73,18.61-85.51,20.58-131.07,16.65-25.32-3.48-52.32-7.85-73.43-23.37C4.66,57.37-1,48.43,1.67,38.77c5.59-14.02,19.34-20.27,32.27-24.85C85.02-3.52,147.89-2.67,199.73,12.62c7.5,2.32,14.58,5.76,21.66,9.36Z"/>
  <path class="cls-1" d="M210.83,21.06c9.07,4.66,22.83,12.01,22.06,24.16-.78,13.19-15.41,19.43-25.15,24.13-38.49,14.86-81.94,16.38-123.42,12.49-23.64-3.3-45.85-7.06-65.87-19.6-7.07-4.48-13.87-12.31-12.34-20.3,2.94-12.53,15.48-18.55,26.42-23.31C71.32,4.82,115.67,2.58,156.98,7.43c18.78,1.97,37.61,6.65,53.85,13.63Z"/>
  <path class="cls-2" d="M155.62,14.7c.72.17,1.51.5,1.5,1.38-2.23,6.78-9.84,7.33-16.01,7.9-10.8-.12-21.65-2.96-31.23-5.06-.4.32-.17.88-.25,1.36-4.92,3.55-8.89,8.62-12.71,13.46,2,.26,5.2.06,7.37-.96.02-2,.53-4.15,1.9-5.5,1.77-.7,3.62-1.88,5.77-.98,1.75,1.22,1.72,3.54,1.22,5.29-.66,1.67-2.27,2.94-3.96,3.88.23,1.04,2.14,1.46,1.57,2.9-.49.96-1.53.54-2.17,1.02-1.59-1.14-2.14-2.26-3.65-3.16l-10.74,1.4c-8.21,11.91-17.83,35.25-37.05,30.32-4.14-1.41-7.23-4.24-8.55-8.49-1.63-4.58.59-10.07,3.27-14.12,2.83-2.53,6.13-4.89,9.81-4.61,1.19.49,1.18,2.01,1.01,3.13-4.51,2.83-7.68,7.44-6.69,12.01.31,1.12,1.17,2.33,2.29,2.91,13.34,1.99,20.76-10.81,28.06-19.61-1.59-.98-3.37.76-5.05,1.22-1.61.86-2.75,2.85-4.73,1.31,0-.88-1.1-1.93.03-2.64,3.63-2.76,8.35-2.95,12.68-4.02,4.23-6.35,10.3-12.45,16.19-16.86-7.49-2.64-15.57-3.05-23.9-2.1-4.1,1.48-8.69,4.3-10.02,8.77-.19,2.32-.04,3.76,1.79,4.98,5.2.46,8.37-4.23,11.6-6.91.96.01,2.64-.21,2.31,1.31-.11,2.56-1.57,4.62-3.19,6.53-4.2,3.79-8.89,8.54-15.27,6.63-1.75-1.3-4.62-2.21-4.91-4.77-1.47-4.5.26-9.04,2.78-12.53,16.81-15.58,40.95-5.95,61.64-3.48,9.75.91,18-.04,27.3-1.86Z"/>
  <path class="cls-2" d="M191.14,29.57c-2.43,3.17-3.91,6.2-5.86,9.38-4.81,8.27-10.81,15.4-14.51,24.24,1.26,1.53,3.28.36,4.72.05,4.03-2.44,7.52-7.04,10.91-9.64,1.04-.47,1.27,1.05,2.07,1.06v.8c-4.95,5.31-10.55,12.52-18.48,13.96-2.48.05-5.42-1.98-6.52-3.99-3.62,1.56-7.65,4.48-11.32,3.32-1.75-.74-3.66-1.56-4.68-3.49-.86-2.25-.43-4.97-.96-7.05-2.74,1.57-6.35,2.33-9.45,1.18-1.43-.9-1.65-2.74-2.6-3.95-3.41,4.2-6.34,9.45-9.59,13.5-2.23-.58-4.88.03-7.11-.56,3.6-7.4,10.15-13.41,12.32-21.39-.47-.97-1.59-.98-2.31-.59-11.27,6.36-14.62,27.2-30.72,21.75-2.23-1.14-2.68-3.71-3.86-5.32-2.56.29-4.52,3.55-7.39,2.8-3.79-4.52,4.06-5.4,5.38-9.14,3.11-6.53,8.16-15.03,16.41-15.5,1.84-.3,2.71,1.31,3.41,2.6-1.38,2.23-4.19,2.67-6.13,4.41-3.55,2.84-5.84,7.14-5.89,12.02.79,1.05,1.34,2.01,2.61,2.43,2.96.19,5.61-1.06,7.39-3.12,2.68-4.05,5.94-9.45,3.52-14.92-.06-1.52,1.62-1.74,2.43-2.53,1.6-.46,3.03.59,3.66,2.12.47,1.21-.03,2.88.76,3.93,3.57-4.12,8.18-8.79,13.69-8.25,1.36.18,2.94,1.79,3.09,3.15.07.64-.18,1.44.3,1.84,3.3-2.2,6.86-5.53,11.31-3,2.06,1.62,2.19,4.66,1.21,6.81-.98,1.35-3.07,2.85-4.99,2.35-1.68.3-2.46-2.11-3.89-2.68-1.46,1.98-1.97,4.38-.63,6.55,3.83,1.24,6.66-1.61,9.48-3.58,5.09-4.75,11.96-11.07,19.22-9.47,1.67.66,3.5,1.96,4.2,3.73l.8-.31c4.46-5.47,6.93-11.84,11.94-16.35,1.36.01,4.32.05,6.08.07v.8Z"/>
  <path class="cls-1" d="M110.1,28.92c.78,1.93-1.31,2.71-2.2,3.42-.31-1.28.44-3.44,2.2-3.42Z"/>
  <path class="cls-1" d="M167.81,48.92c-.57,1.03-1.15,2.55-.04,3.2-1.8,3.82-4.42,9.23-9.32,10.62-1.45.7-3.12-.11-3.91-1.32-.64-6.89,4.77-11.79,9.61-15.1,2-.3,3.91.44,3.65,2.6Z"/>
</svg>