<?xml version="1.0" encoding="UTF-8"?>
<svg id="Layer_1" data-name="Layer 1" xmlns="http://www.w3.org/2000/svg" viewBox="0 0 173.52 89.46">
  <defs>
    <style>
      .cls-1 {
        fill: #fff;
      }

      .cls-2 {
        fill: #f4bd56;
      }
    </style>
  </defs>
  <rect class="cls-1" y="6.82" width="172.94" height="54.07"/>
  <path class="cls-2" d="M.02,0v31.49h51.05v8.09H.02v25.61h173.5V0H.02ZM50.6,49.33v5.91h-13.83v-14.05h16.12v-11.3h-16.12v-9.39l16.74-.12c4.54-.09,8.84,1.56,11.21,5.63,2.6,5.06,2.98,12.68-.14,17.64-3.26,4.45-8.58,5.77-13.97,5.68ZM88.59,55.24l-17.97-.05c-2.02-.42-4.11-1.66-5.06-3.64-.95-2.41-1.22-5.54.24-7.8,2.6-3.26,11.21-2.55,11.21-2.55v6.65h1.66v-8.43h-10.5v-8.33h14.47c2.08.05,4.02,1.27,5.06,3.11.66,1.18.9,2.5.95,3.97l-.06,17.07ZM106.11,39.58h-5.6v15.66h-9.74s-.09-12.62,0-18.68c0-2.6,2.65-4.35,4.82-5.15,3.12-.95,10.52-.47,10.52-.47v8.65ZM121.91,55.24l-4.49-7.7v7.7h-9.8V20.5h9.8v18.15l4.58-7.72h10.39l-6.81,11.87,6.86,12.44h-10.54ZM152.8,45.6h-10v-7.04h-1.66v8.6h11.67v8.08s-10.15-.05-15.17-.05c-3.07-.47-6.38-2.7-7.09-5.91-.43-3.88-.47-8.09.05-11.92.19-2.55,2.13-4.82,4.49-5.72,4.88-1.51,10.97-1.56,15.37,1.14l.94.76c1.61,1.56,1.23,3.69,1.42,5.81-.04,2.04-.01,6.25-.01,6.25ZM170.33,39.58h-5.6v15.66h-9.79v-18.68c.15-1.89,1.48-3.31,3.08-4.35,3.26-2.03,8.29-1.09,12.31-1.28v8.65Z"/>
  <g>
    <path class="cls-1" d="M56.54,85.84c-4.83,0-6.3-4.01-6.3-6.81s1.48-6.8,6.3-6.8,6.3,4.01,6.3,6.8-1.48,6.81-6.3,6.81ZM56.54,73.78c-2.81,0-4.5,2.21-4.5,5.26s1.69,5.26,4.5,5.26,4.5-2.21,4.5-5.26-1.69-5.26-4.5-5.26Z"/>
    <path class="cls-1" d="M68.74,81.33h-4.41v-1.62h4.41v1.62Z"/>
    <path class="cls-1" d="M72.86,85.5h-1.75v-12.92h5.98c2.12,0,4.25.74,4.25,3.47,0,1.91-.97,2.61-1.8,3.1.74.31,1.47.63,1.55,2.43l.11,2.34c.02.72.11.99.65,1.3v.29h-2.14c-.25-.79-.31-2.75-.31-3.24,0-1.06-.21-2.3-2.3-2.3h-4.23v5.54ZM72.86,78.46h4.05c1.28,0,2.63-.33,2.63-2.23s-1.46-2.16-2.32-2.16h-4.36v4.39Z"/>
    <path class="cls-1" d="M83.74,74.38v-1.8h1.58v1.8h-1.58ZM85.32,85.5h-1.58v-9.41h1.58v9.41Z"/>
    <path class="cls-1" d="M95.36,85.5h-1.58v-5.79c0-1.64-.47-2.47-2.02-2.47-.9,0-2.48.57-2.48,3.13v5.13h-1.58v-9.41h1.49v1.33h.04c.34-.5,1.22-1.6,2.84-1.6,1.46,0,3.29.59,3.29,3.28v6.41Z"/>
    <path class="cls-1" d="M105.51,84.73c0,1.35-.02,4.73-4.37,4.73-1.12,0-3.29-.31-3.6-2.81h1.58c.29,1.49,1.75,1.49,2.12,1.49,2.74,0,2.68-2.19,2.68-3.31v-.4c-.45.76-1.28,1.33-2.54,1.33-3.2,0-4.14-3.01-4.14-5.26,0-2.65,1.42-4.7,3.92-4.7,1.71,0,2.45,1.08,2.84,1.66v-1.39h1.49v8.64ZM101.43,84.4c1.01,0,2.58-.66,2.58-3.17,0-1.53-.25-4-2.54-4-2.45,0-2.58,2.32-2.58,3.53,0,2.07.81,3.64,2.54,3.64Z"/>
    <path class="cls-1" d="M113,72.58h5.24c3.37,0,5.43,2.55,5.43,6.28,0,2.9-1.26,6.64-5.51,6.64h-5.17v-12.92ZM114.75,84.01h3.38c2.27,0,3.74-1.78,3.74-5.04s-1.49-4.9-3.87-4.9h-3.26v9.93Z"/>
    <path class="cls-1" d="M125.75,74.38v-1.8h1.58v1.8h-1.58ZM127.33,85.5h-1.58v-9.41h1.58v9.41Z"/>
    <path class="cls-1" d="M135.66,76.09h1.73l-3.58,9.41h-1.69l-3.44-9.41h1.84l2.45,7.67h.04l2.66-7.67Z"/>
    <path class="cls-1" d="M138.74,74.38v-1.8h1.58v1.8h-1.58ZM140.33,85.5h-1.58v-9.41h1.58v9.41Z"/>
    <path class="cls-1" d="M148.05,78.77c-.02-.59-.23-1.58-2.23-1.58-.49,0-1.87.16-1.87,1.33,0,.77.49.95,1.71,1.26l1.58.4c1.96.49,2.65,1.21,2.65,2.48,0,1.95-1.6,3.11-3.73,3.11-3.73,0-4-2.16-4.05-3.29h1.53c.05.74.27,1.92,2.5,1.92,1.13,0,2.16-.45,2.16-1.49,0-.76-.52-1.01-1.87-1.35l-1.84-.45c-1.31-.33-2.18-.99-2.18-2.29,0-2.07,1.71-3.01,3.57-3.01,3.36,0,3.6,2.48,3.6,2.95h-1.53Z"/>
    <path class="cls-1" d="M151.74,74.38v-1.8h1.58v1.8h-1.58ZM153.32,85.5h-1.58v-9.41h1.58v9.41Z"/>
    <path class="cls-1" d="M159.53,75.81c3.01,0,4.37,2.54,4.37,4.97s-1.37,4.97-4.37,4.97-4.37-2.54-4.37-4.97,1.37-4.97,4.37-4.97ZM159.53,84.38c2.27,0,2.74-2.34,2.74-3.6s-.47-3.6-2.74-3.6-2.74,2.34-2.74,3.6.47,3.6,2.74,3.6Z"/>
    <path class="cls-1" d="M173.37,85.5h-1.58v-5.79c0-1.64-.47-2.47-2.02-2.47-.9,0-2.48.57-2.48,3.13v5.13h-1.58v-9.41h1.49v1.33h.04c.34-.5,1.22-1.6,2.84-1.6,1.46,0,3.3.59,3.3,3.28v6.41Z"/>
  </g>
</svg>