<?xml version="1.0" encoding="UTF-8"?>
<svg id="Layer_1" data-name="Layer 1" xmlns="http://www.w3.org/2000/svg" viewBox="0 0 160.09 104.07">
  <defs>
    <style>
      .cls-1 {
        fill: #fff;
      }

      .cls-2 {
        fill: #e1251b;
      }

      .cls-3 {
        fill: #235b40;
      }

      .cls-4 {
        fill: #007934;
      }

      .cls-5 {
        fill: #5c5c5c;
      }
    </style>
  </defs>
  <path class="cls-2" d="M147.21,23.69C132.37,8.86,107.27,0,80.05,0,35.91,0,0,23.34,0,52.03c0,10.11,4.45,19.91,12.88,28.34,14.83,14.84,39.94,23.69,67.16,23.69s52.33-8.86,67.16-23.69c8.43-8.43,12.88-18.23,12.88-28.34s-4.46-19.91-12.88-28.34Z"/>
  <path class="cls-1" d="M80.05,102.72c-26.87,0-51.62-8.71-66.21-23.3C5.67,71.25,1.35,61.78,1.35,52.03s4.32-19.22,12.49-27.39C28.43,10.06,53.18,1.35,80.05,1.35s51.62,8.71,66.21,23.3c8.17,8.17,12.49,17.64,12.49,27.39,0,27.94-35.3,50.68-78.7,50.68Z"/>
  <path class="cls-5" d="M75.42,29.42s-.9-.3-1.5.45l1.35.9.15-1.35Z"/>
  <path class="cls-5" d="M82.32,29.71s-.9-.45-1.95,0v2.1s1.05-1.5,1.95-2.1Z"/>
  <path class="cls-4" d="M157.61,51.95c0,9.56-4.24,18.84-12.26,26.87-14.43,14.43-38.88,23.04-65.41,23.04s-50.79-8.58-65.16-22.95c-8.04-8.04-12.29-17.36-12.29-26.96C2.48,24.52,37.23,2.2,79.94,2.2c26.6,0,51.07,8.6,65.47,22.99,7.98,7.98,12.2,17.23,12.2,26.76ZM16.97,39.77c-1.39-.69-1.35-.82.46-4.48,2.89-5.84,4.08-2.31,4.79-3.73.34-.7-.4-.88-.67-.97l-2.06-.87c-.18-.09-.49.02-.68.41-1.32,2.66-2.27,4.79-3.34,6.94-2.29,4.63-3.45,6.77-4.07,8.01-.21.43-.17.74.01.84.81.4,1.86-3.34,3.67-2.44l9.44,4.68c2.46,1.22.23,2.98,1.16,3.44.12.06.31-.07.51-.46.83-1.66,1.37-2.98,1.84-3.91.66-1.33,1.3-2.41,1.87-3.56.37-.76.77-1.35.37-1.56-.54-.27-1.74,3.4-3.97,2.29l-2.98-1.48c-1.17-.58-1.47-.58-.78-1.97l1.11-2.24c1.56-3.15,3.28-1.24,3.76-2.21.36-.72-.45-.9-.73-1l-3.69-1.57c-.56-.24-.68.11-.79.32-.3.61,1.51,1.61.22,4.22l-.95,1.91c-.64,1.3-.79,1.23-1.65.8l-2.82-1.4ZM39.97,27.17c.75-.45,1.01-.34,2.87.6.63.33,1.04.56,1.29.98.7,1.18-1.48,2.19-1.15,2.75.16.27.52,0,1.04-.3.84-.5,1.87-1.22,3.15-1.98,1.91-1.14,2.74-1.53,3.79-2.15.78-.47,1.07-.58.87-.92-.38-.64-1.5,1.05-3.24.23l-14.89-7.17c-.72-.36-.8-.36-1.07-.2-.38.23-.3.68-.32,1.11l-.89,16.38c-.08,1.51-1.63,2.28-1.36,2.72.15.25.59-.06,1-.31.84-.5,1.64-1.08,2.51-1.6.93-.55,1.85-.99,2.77-1.55.61-.36,1.59-.76,1.35-1.17-.31-.52-3.26,1.66-4.09.26-.28-.46-.27-1.38-.3-1.89-.09-1.67.47-2.11.96-2.41l5.72-3.41ZM50.67,13.33c0,.37,0,.97.56.85,1.62-.34-1.15-2.52,5.96-4,1.88-.39,3.95-.92,4.09-.25.05.22-.27.86-.45,1.15l-7.39,13.2c-.27.52-.98,1.58-.93,1.83.03.15.23.11.66.02.86-.18,2.92-.7,4.34-1,1.65-.34,3.65-.67,8.68-1.72,2.71-.56,4.28-2.78,3.92-4.5-.09-.42-.33-.44-.46-.41-1.26.26-.19,3.05-8.39,4.76-2.05.43-3.07.52-3.12.24-.04-.18.27-.7.32-.8l7.45-13.42c.8-1.46,1.06-1.88,1.02-2.08-.06-.26-.31-.16-1.4.06-3.83.84-5.54,1.2-8.68,1.9-2.31.48-5.57,1.07-6.23,1.21l.06,2.95ZM71.72,14.69c-.11,4.57,4.37,7.72,11.15,7.88,10.77.27,12.97-5.19,13.04-8.35.12-4.77-4.84-7.8-11.42-7.91-8.07-.15-12.65,3.45-12.77,8.38ZM105.26,11.52c.41-1.66,2.53-.28,2.74-1.11.06-.26-.09-.32-.78-.5-.53-.13-.94-.14-3.73-.83-1.25-.31-3.12-.87-4.44-1.19-.69-.17-1.09-.09-1.14.11-.19.76,3.66,1.09,3.2,2.95l-2.56,10.34c-.66,2.67-2.86.87-3.11,1.87-.03.13.14.29.56.39,1.8.45,3.2.7,4.22.95,1.64.41,3.58.98,8.56,2.21,2.69.67,5.07-.65,5.49-2.35.1-.42-.11-.54-.24-.57-1.25-.31-1.5,2.67-9.63.66-2.36-.59-2.03-1.34-1.7-2.7l2.54-10.25ZM127.07,20.54c.99-1.9,2.86,0,3.21-.69.12-.24,0-.36-.9-.83-1.71-.89-2.83-1.37-3.91-1.93-1.05-.55-2.17-1.23-3.34-1.84-.27-.14-.98-.59-1.16-.25-.36.7,3.31,1.9,2.37,3.72l-4.99,9.58c-.99,1.9-2.87.25-3.24.95-.05.1-.06.27.21.41.78.4,2.11.99,3.4,1.67,2.33,1.22,3.4,1.87,4.51,2.45.69.36,1,.42,1.11.2.33-.64-3.5-1.47-2.22-3.92l4.96-9.52ZM130.85,29.01l4.41-3.42c.68-.51.35-1.99-.73-2.8-1.08-.81-2.59-.71-2.89.08l-2.04,5.19,1.25.93ZM130.35,36.73c-.38.42-.55.48-.25,1.28.74,1.84,1.14,3.6,2.18,5.37,2.23,3.82,5.53,5.49,8.08,4,2.47-1.45,2.17-3.86,1.26-7.51-1.14-4.58-1.82-6.33-.52-7.09,1.3-.76,2.81.12,3.93,2.04,2.93,5.01-.42,7.56-.03,8.23.37.64.66.59,1.05.28l2.42-1.84c.41-.32.75-.41.5-.84-.22-.38-.96-.93-1.18-1.3-.51-.87-.47-2.54-1.87-4.93-1.99-3.41-4.99-4.78-7.23-3.48-2.04,1.19-1.79,3.36-1.06,6.29,1.37,5.5,2.19,7.48.54,8.45-1.55.91-3.51-.29-4.84-2.57-1.89-3.23-1.18-6.07.14-8.1.18-.26.33-.43.05-.89-.43-.73-.82-.11-1.04.14l-2.13,2.46ZM15.05,57.6c1.8,0,3.26-.91,3.26-2.03s-1.46-2.03-3.26-2.03-3.26.91-3.26,2.03,1.46,2.03,3.26,2.03ZM145.01,57.6c1.8,0,3.26-.91,3.26-2.03s-1.46-2.03-3.26-2.03-3.26.91-3.26,2.03,1.46,2.03,3.26,2.03ZM17.06,66.09c.1.16.22.33.31.51.09.17.15.35.24.54l8.17-4.32c-.11-.18-.23-.34-.31-.51-.1-.18-.17-.37-.24-.54l-8.17,4.32ZM28.29,67.51c.76.93,1.3,1.71,1.66,2.29.1-.09.18-.2.29-.29.11-.09.22-.14.34-.23l-4.41-5.4c-.1.1-.18.2-.29.29-.11.09-.22.15-.34.22.55.54,1.13,1.13,2,2.19l-6.68,5.45c.13.14.28.28.41.44.12.15.22.31.35.48l6.68-5.45ZM34.43,72.08l-.25-.19-9.1,4.92c.13.08.26.15.4.25.13.1.23.21.37.34,1.07-.78,2.18-1.42,3.28-2.08l2.72,2.09c-.32,1.3-.72,2.63-1.1,3.76.19.13.39.25.59.41.18.14.34.29.53.46l2.54-9.96ZM39.56,75.69c-.2-.09-.38-.16-.54-.25-.18-.1-.34-.22-.5-.32l-4.39,8.08,4.32,2.35c.05-.13.09-.26.16-.38.06-.12.15-.21.23-.34-.41-.16-.8-.31-1.18-.51-.73-.36-1.46-.7-2.17-1.12l4.09-7.52ZM40.71,86.61c.18.06.37.12.56.2.17.08.34.18.53.28l3.71-8.46c-.2-.08-.39-.13-.56-.2-.18-.08-.36-.19-.53-.27l-3.71,8.46ZM51.02,80.5l-.29-.1-7.02,7.6c.15.04.29.06.46.11.15.05.29.12.46.2.76-1.08,1.6-2.05,2.43-3.02l3.25,1.1c.12,1.34.16,2.72.18,3.91.22.06.45.11.69.19.22.07.41.17.65.26l-.82-10.24ZM63.71,83.94c-.13-.02-.26-.02-.38-.04-.13-.03-.25-.08-.36-.12l-1.47,6.8-.13-.03-4.81-8.15-.52-.11-1.95,9.03c.12.01.25.01.38.04.12.02.23.08.36.12l1.53-7.12.13.03,4.34,7.54c.21.37.41.74.52.95l.4.08,1.95-9.03ZM69.35,93.97c.19,0,.4-.01.6,0,.19.02.37.06.59.09l.39-4.61,2.09.18c.4.03.79.12,1.19.17,0-.15-.02-.27,0-.38.01-.12.05-.24.07-.35-.4-.02-.8,0-1.2-.03l-2.09-.18.28-3.38,1.04.09,1.34.14c.4.06.8.13,1.2.25,0-.14-.02-.27,0-.41.01-.13.05-.25.07-.4l-4.78-.4-.78,9.21ZM80.96,94.72c3.01,0,5.15-1.96,5.16-4.97,0-3.24-2.57-4.62-5.11-4.63-2.8,0-5,1.85-5.01,4.81,0,2.89,1.98,4.78,4.96,4.79ZM93.47,94.08c3-.32,4.91-2.5,4.59-5.5-.35-3.22-3.06-4.32-5.58-4.05-2.78.29-4.77,2.38-4.46,5.33.31,2.87,2.48,4.54,5.45,4.22ZM101.18,92.86l2.57-.57c1.4-.31,2.86-.65,3.76-1.88.8-1.09,1.21-2.42.81-4.25-.28-1.25-.97-2.39-2.14-2.99-1.31-.68-2.62-.26-3.99.05l-3,.65,1.97,8.99ZM111.45,89.68c.13.42.6.66,1.03.53.41-.13.65-.58.52-1.01-.13-.41-.59-.66-1-.54-.41.13-.68.59-.55,1.02ZM115.25,88.45c.15.42.63.63,1.05.48.41-.15.63-.62.48-1.03-.15-.41-.62-.64-1.03-.49-.41.15-.65.62-.5,1.04ZM119.07,87.02c.17.41.66.6,1.07.43.4-.17.59-.65.42-1.06-.17-.4-.65-.61-1.05-.44-.4.17-.62.65-.45,1.07ZM124.24,85.5c.16-.1.33-.22.51-.32.17-.09.34-.15.54-.24l-2.18-4.07,1.85-.99c.35-.19.73-.33,1.09-.5-.08-.13-.16-.22-.21-.32-.05-.11-.09-.23-.13-.33-.35.2-.67.44-1.03.63l-1.85.99-1.6-2.99.92-.49,1.2-.62c.37-.16.75-.32,1.14-.44-.08-.11-.16-.22-.23-.34-.06-.12-.1-.24-.15-.38l-4.23,2.27,4.36,8.14ZM128.47,71.8l-.25.19,2.41,10.05c.11-.1.21-.21.35-.32.13-.1.26-.17.42-.27-.48-1.23-.81-2.48-1.16-3.7l2.72-2.09c1.18.65,2.36,1.38,3.35,2.03.17-.15.34-.31.54-.47.18-.14.37-.25.58-.4l-8.96-5.02ZM137.76,73.81c.27.3.54.62.75.98.68-.02,1.6-.67,2.03-1.17,1.19-1.4,1.29-3.28-.18-4.54-2.19-1.87-4.19,2.02-6.08.4-.73-.62-.71-1.61-.1-2.32.52-.61,1.24-.77,1.98-.51l.09-.1c-.21-.33-.44-.64-.6-1-.66.09-1.33.56-1.75,1.05-1.05,1.23-1.3,2.83.03,3.96,2.32,1.98,4.22-1.95,6.13-.33.81.69.99,1.88.28,2.71-.68.8-1.49.91-2.49.75l-.09.1ZM138.2,61.41c.53-1.08,1.02-1.89,1.39-2.46-.13-.05-.26-.08-.38-.14-.12-.06-.22-.14-.35-.22l-3.09,6.25c.14.06.26.08.38.14.12.06.23.15.35.21.27-.72.56-1.5,1.16-2.72l7.72,3.82c.08-.18.14-.37.23-.55.08-.17.19-.33.3-.51l-7.72-3.82ZM38.45,26.67c.52-.31.94-.54.83-.73-.16-.27-.46-.38-.75-.52l-4.46-2.08c-.27-.05-.18-.1-.33-.02-.06.04-.16.12-.18.42l-.19,4.75c0,.32-.05.63.11.9.11.19.51-.07,1.03-.38l3.94-2.35ZM83.88,21.64c5.81.08,7.77-2.89,7.86-6.63.12-4.97-3.93-7.68-8.29-7.74-5.71-.07-7.47,2.99-7.55,6.25-.08,3.28,1.93,8.04,7.97,8.12ZM32.97,73.19l-3.27,1.84,2.36,1.81.92-3.65ZM49.99,82.01l-2.5,2.8,2.81.95-.31-3.76ZM83.95,86.88c-.67-.85-1.73-1.31-2.81-1.32-2.38,0-3.81,1.79-3.82,4.54,0,2.74,1.67,4.17,3.68,4.18,2.85,0,3.88-2.94,3.79-4.42,0-1.12-.15-2.07-.84-2.97ZM95.59,85.96c-.76-.77-1.86-1.12-2.93-1-2.36.25-3.6,2.19-3.31,4.92.29,2.72,2.11,3.97,4.11,3.75,2.83-.3,3.54-3.34,3.29-4.8-.12-1.12-.37-2.04-1.16-2.87ZM102.21,92.01c1.17-.19,2.84-.39,3.79-1.17,1.27-1.02,1.42-2.59,1.07-4.2-.62-2.79-1.99-3.56-4.94-2.91-.54.12-1.09.28-1.65.42l1.73,7.86ZM129.16,73.5l.94,3.64,2.36-1.81-3.3-1.83Z"/>
  <g>
    <path class="cls-4" d="M146.72,96.48c-.8,0-1.48-.28-2.04-.85-.56-.56-.84-1.24-.84-2.04s.28-1.48.84-2.04c.56-.57,1.24-.85,2.04-.85s1.47.28,2.04.85c.56.56.84,1.25.84,2.04s-.28,1.48-.84,2.04c-.56.57-1.25.85-2.04.85ZM146.72,96.16c.71,0,1.31-.25,1.81-.75.5-.5.75-1.1.75-1.82s-.25-1.31-.75-1.81c-.5-.5-1.1-.75-1.81-.75s-1.32.25-1.81.75c-.5.5-.75,1.1-.75,1.82s.25,1.31.75,1.82c.5.5,1.1.75,1.81.75Z"/>
    <path class="cls-4" d="M146.68,95.04v-.16c-.13,0-.21-.01-.24-.02-.09-.03-.11-.11-.11-.29v-.95c.09-.01.15-.01.18-.01.21,0,.3.05.39.21.04.08.12.24.23.5.17.38.29.6.34.65.06.05.16.08.3.08h.48v-.16c-.08,0-.15-.02-.19-.06-.07-.07-.19-.27-.33-.59-.07-.15-.11-.24-.13-.26-.04-.08-.1-.15-.16-.23-.12-.14-.17-.18-.35-.24.4-.1.59-.22.71-.46.13-.25.12-.51,0-.77-.14-.26-.4-.4-.98-.4h-1.41v.17c.13,0,.21,0,.24.01.08.02.13.05.13.31v2.24c0,.1,0,.16-.03.19,0,.02-.03.04-.05.05-.04.02-.12.03-.23.03h-.06s0,.16,0,.16h1.29Z"/>
    <path class="cls-1" d="M146.32,93.39c.09,0,.16.01.21.01.31,0,.51-.07.62-.2.1-.14.16-.3.16-.5s-.06-.36-.17-.48c-.11-.12-.26-.17-.45-.17-.07,0-.16,0-.26.02-.03,0-.06.02-.07.04-.02.04-.04.08-.04.13v1.14Z"/>
  </g>
  <path class="cls-2" d="M66.71,32.27s-2.1,1.8-2.4,2.55c0,0-18.91-.45-18.91,17.7s15.76,19.21,20.11,18.91l-.9-1.35.6-1.95s5.4,5.1,14.41,5.1,12.76-4.65,12.76-4.65l.9.75-1.2,1.65s22.21,1.95,22.21-18.31c0,0-.9-15.15-14.26-17.71,0,0,.15,3.9-2.7,3.75-2.85-.15-8.85-5.1-10.66-2.4,0,0,1.35.15,2.25.9,0,0,3.45-1.2,5.7,3,0,0-5.4-2.7-5.25-1.5.15,1.2,1.35,6.3,4.95,7.65,0,0-.3,3.45-5.4,2.85-5.1-.6-6.45-8.1-6.45-8.1,0,0-2.4,2.1-4.65.15,0,0-.9,7.06-8.1,6.9,0,0-3.6.15-4.2-3.45,0,0,5.1-.6,5.85-5.71,0,0-3.6-.9-7.35,3,0,0,1.65-5.4,7.5-5.1,0,0-.45-2.4-2.85-2.25-2.4.15-3.9,6.75-7.65,6.45-3.75-.3-2.85-3.75-2.85-3.75,0,0,6.3,2.55,8.55-5.1Z"/>
  <path class="cls-1" d="M91.17,33.02l3.6,1.65s-2.85,1.8-3.6-1.65Z"/>
  <path class="cls-1" d="M99.58,42.92s3.45,1.8,3.75,5.55l3.9-2.1s.15-3.9-4.35-6.3l-3.3,2.85Z"/>
  <polygon class="cls-1" points="107.38 46.97 103.63 48.92 104.08 50.72 107.38 49.22 107.38 46.97"/>
  <path class="cls-1" d="M76.32,29.11s.3,3.75,1.2,6.16c0,0-4.35.15-5.1,2.85-.75,2.7-.75,5.7-5.25,7.06,0,0,5.55,5.25,9.75-6.15,0,0,1.5-1.5,2.1-.3.6,1.2,1.35,1.05,1.65,0,.3-1.05,2.25-1.35,2.7.45.45,1.8,3,11.7,9.75,7.65,0,0-3.3-1.35-4.2-6.6,0,0,0-4.2-5.55-3.6,0,0,1.35-4.35,7.05-3,0,0,.3-3.9-4.95-4.35,0,0-5.85.9-4.05,5.7,0,0,2.55-4.8,5.85-3.3,0,0-4.05,1.35-5.1,3.9,0,0-1.65,1.95-2.7-2.4,0,0-.45-1.5,0-3.15,0,0-1.2.75-3.15-.9Z"/>
  <path class="cls-1" d="M77.97,27.01s-1.35,0-1.35.9,2.4,1.65,3.3.9c.9-.75-1.35-1.8-1.95-1.8Z"/>
  <path class="cls-1" d="M94.17,35.72s2.7.6,4.8-3c0,0,.9,8.1-4.8,3Z"/>
  <path class="cls-1" d="M76.32,34.37s-1.35-4.81-5.25-4.95c0,0-2.7-.3-3.45,3.15,0,0,4.2-.75,5.55,3.15,0,0,1.95-1.05,3.15-1.35Z"/>
  <path class="cls-1" d="M59.06,38.57s3.6.9,5.55-1.35c0,0-3.3,5.4-5.55,1.35Z"/>
  <path class="cls-3" d="M74.97,33.77s-.9-3.75-5.55-2.25c0,0,3.75-.15,4.8,2.7l.75-.45Z"/>
  <path class="cls-3" d="M76.92,36.62s-2.4.45-3,2.25c-.6,1.8-.45,2.85-1.95,4.2,0,0,2.55-.3,3.15-3.45.44-2.33,1.8-3,1.8-3Z"/>
  <path class="cls-3" d="M83.22,37.37s2.1.9,2.55,2.85c.45,1.95,1.95,3.75,3.15,4.2,0,0-1.5-2.4-1.95-4.2-.45-1.8-1.2-3.15-3.75-2.85Z"/>
  <path class="cls-1" d="M122.62,38.81c-8.56-8.56-24.87-13.88-42.56-13.88-.3,0-.61,0-.91,0,1.28.86,1.21,2.68,1.21,2.68.9,1.5,2.7,1.2,2.7,1.2,1.2-.3,3.15-1.65,8.7,2.1,5.55,3.75,5.85.45,5.85.45,20.56.75,20.11,21.61,20.11,21.61-2.4,24.91-27.61,19.21-27.61,19.21-11.26,7.8-23.86.3-23.86.3-9.3,1.65-26.11-2.55-24.46-21.91,1.65-19.36,21.01-18.01,21.01-18.01,1.05.3,3.15-1.65,3.15-1.65,3.75-3.45,9.3-2.1,9.3-2.1-.24-1.32.28-3.1.5-3.77-24.81,1.21-44.34,12.8-44.34,26.89,0,4.6,2.1,9.14,6.08,13.12,8.56,8.56,24.86,13.88,42.55,13.88s34-5.32,42.56-13.88c3.98-3.98,6.08-8.51,6.08-13.12s-2.1-9.14-6.08-13.12Z"/>
  <path class="cls-2" d="M121.67,39.76c-8.3-8.3-24.21-13.46-41.52-13.47.18.5.22,1.17.22,1.15,16.69.06,31.95,4.79,39.88,12.71,3.58,3.58,5.47,7.65,5.47,11.78s-1.86,8.12-5.39,11.65c-7.92,7.92-23.34,12.68-40.25,12.68s-32.38-4.76-40.31-12.7c-3.52-3.52-5.39-7.55-5.39-11.63,0-12.74,17.93-23.07,40.86-24.36h0c.03-.39.1-.79.17-1.16-15.5.84-29.37,5.79-36.93,13.35-3.72,3.72-5.69,7.93-5.69,12.17s1.97,8.44,5.69,12.16c8.31,8.31,24.25,13.48,41.6,13.48,26.07,0,47.29-11.5,47.29-25.64,0-4.24-1.97-8.44-5.69-12.17Z"/>
</svg>