<?xml version="1.0" encoding="UTF-8"?>
<svg id="Layer_1" data-name="Layer 1" xmlns="http://www.w3.org/2000/svg" viewBox="0 0 503.99 155.83">
  <defs>
    <style>
      .cls-1 {
        fill-rule: evenodd;
      }

      .cls-1, .cls-2 {
        fill: #007ac2;
      }
    </style>
  </defs>
  <path class="cls-1" d="M98.39,107.56l18.68-37.83h-57.05l-5.34,14.42h27.48c-8.5,6.77-22.78,11.11-34.44,11.11s-21.23-4.06-11.37-25.54c9.81-21.36,23.16-25.53,34.82-25.53,13.63,0,17.76,6.85,15.64,14.74l37.3-3.02c1.17-17.64-16.12-27.51-45.69-27.51-33.7,0-61.31,11.85-75.74,31.45C-2.53,33.09,1.47,13.07,1.47,13.07q70.78-17.43,142.27,0s7.4,38.1-12.24,79.43l52.84-52.11h32.82l6.75,64.75h-31.7l-.71-12.35h-36.2l-12.61,12.35h-18.04c-.51.82-.88,1.38-1.41,2.21l-.23.36c-10.93,17.03-27.04,33.83-50.81,48.13-18.84-11.37-32.86-24.36-43.27-37.76-10.58-1.71-18.48-5.29-23.36-10.44,0,0-.53-.57-1.17-1.32-.38-.44-1.4-1.96-1.4-1.96,0,0,1.17.93,2.42,1.65.62.36,1.48.89,2.87,1.62h0c7.47,3.76,17.55,5.86,29.94,5.86,9.42,0,19.58-1.57,30.03-5.86,0,0,5.02-2.37,5.84-2.76.13-.06,5.02-2.3,10.79-6.52.33-.24,3.36-2.47,3.36-2.47l-5.42,11.76-4.11,8.94h15.22s4.4-8.94,4.4-8.94l.03-.07ZM384.81,105.13l6.36-13.86h-44.54l23.37-50.89h-30.38l-29.73,64.75h74.93ZM302.91,105.13l6.36-13.86h-44.55l23.37-50.89h-30.38l-29.73,64.75h74.93ZM190.81,79.4h-22.6l21.32-21.11h.28l1,21.11h0ZM486.2,84.78c12.12-26.39-50.36-17.15-45.55-27.61,1.38-3.02,7.27-4.62,14.87-4.62,9.29,0,15.58,1.6,19.49,5.75l21.84-8.95c-5.96-7.45-19.8-10.18-34.81-10.18-25.41,0-46.74,8.67-52.54,21.3-11.25,24.5,49.79,16.96,45.24,26.86-1.3,2.83-7.38,5.65-19.29,5.65-10.97,0-18.82-2.92-23.18-7.92l-22.17,8.67c6.71,9.9,22.14,12.63,41.09,12.63,31.04,0,50.12-10.93,55.02-21.58h0Z"/>
  <path class="cls-2" d="M492.02,37.32h5.14v.76h-2.14v5.57h-.86v-5.57h-2.14v-.76Z"/>
  <path class="cls-2" d="M503.17,43.65v-3.74c0-.19.02-.99.02-1.58h-.02l-1.78,5.32h-.85l-1.78-5.31h-.02c0,.58.02,1.38.02,1.57v3.74h-.83v-6.33h1.23l1.81,5.35h.02l1.8-5.35h1.22v6.33h-.83Z"/>
</svg>