<?xml version="1.0" encoding="UTF-8"?>
<svg id="Layer_1" data-name="Layer 1" xmlns="http://www.w3.org/2000/svg" viewBox="0 0 266.89 73.65">
  <defs>
    <style>
      .cls-1 {
        fill: #fff;
      }

      .cls-2 {
        fill: #ee354f;
        font-family: FrancisGothicExtendedNormal, FrancisGothicExtendedNormal;
        font-size: 12px;
      }

      .cls-3 {
        fill: #ee334e;
      }
    </style>
  </defs>
  <path class="cls-3" d="M117.6,47.56c4.34-4.97,6.96-11.44,6.96-18.51,0-15.67-12.87-28.37-28.75-28.37s-28.75,12.7-28.75,28.37c0,7.04,2.59,13.47,6.89,18.43l8.89-8.49c-1.8-2.75-2.85-6.1-2.85-9.71,0-7.47,4.51-13.81,10.79-16.12l-.07,31.75h10.8V13.25c6.16,2.38,10.56,8.66,10.56,16.04,0,3.83-1.18,7.36-3.19,10.2l8.7,8.07Z"/>
  <path class="cls-3" d="M152.87,27.45c0,4.75-3.62,8.6-8.09,8.6s-8.09-3.85-8.09-8.6,3.62-8.6,8.09-8.6,8.09,3.85,8.09,8.6ZM144.66,9.84c-9.78,0-17.71,7.83-17.71,17.48s7.93,17.48,17.71,17.48,17.71-7.82,17.71-17.48-7.93-17.48-17.71-17.48Z"/>
  <path class="cls-3" d="M174.32,27.45c0-4.75,3.62-8.6,8.09-8.6s8.09,3.85,8.09,8.6-3.62,8.6-8.09,8.6-8.09-3.85-8.09-8.6M174.35,42.95c2.39,1.18,5.08,1.85,7.93,1.85,9.78,0,17.71-7.82,17.71-17.48s-7.93-17.48-17.71-17.48-17.71,7.83-17.71,17.48l-.08,24.54h9.72l.13-8.91Z"/>
  <path class="cls-3" d="M228.7,27.45c0,4.75-3.62,8.6-8.08,8.6s-8.09-3.85-8.09-8.6,3.62-8.6,8.09-8.6,8.08,3.85,8.08,8.6ZM238.19,27.32c0-9.65-7.93-17.48-17.71-17.48s-17.71,7.83-17.71,17.48,7.93,17.48,17.71,17.48c2.95,0,5.62-.66,8.06-1.91v2.03h9.57l.08-17.6Z"/>
  <path class="cls-3" d="M266.89,12.54c-2.19-.96-4.61-1.49-7.16-1.49s-4.86.51-7,1.42l-.87.07v-2.13h-10.19v34.5h10.19l.02-17.62c.62-4.1,3.96-7.23,7.98-7.23.94,0,1.84.17,2.68.48l4.36-8Z"/>
  <path class="cls-3" d="M257.64,41.26c0-1.99,1.5-3.49,3.42-3.49s3.4,1.5,3.4,3.49-1.5,3.51-3.4,3.51-3.42-1.49-3.42-3.51ZM261.06,45.47c2.29,0,4.24-1.78,4.24-4.21s-1.96-4.19-4.24-4.19-4.27,1.78-4.27,4.19,1.96,4.21,4.27,4.21ZM260.17,41.6h.84l1.28,2.1h.82l-1.38-2.13c.71-.09,1.25-.47,1.25-1.33,0-.96-.57-1.38-1.71-1.38h-1.84v4.84h.73v-2.1ZM260.17,40.97v-1.5h1c.51,0,1.06.11,1.06.71,0,.74-.56.79-1.18.79h-.88Z"/>
  <path class="cls-3" d="M7.53,0h44.19c3.79,0,6.87,3.08,6.87,6.87v38.99c0,3.79-3.08,6.87-6.87,6.87H7.53c-3.79,0-6.86-3.08-6.86-6.86V6.86C.66,3.08,3.74,0,7.53,0Z"/>
  <path class="cls-1" d="M7.53,1.67h44.19c2.87,0,5.2,2.33,5.2,5.2v38.99c0,2.87-2.33,5.2-5.2,5.2H7.53c-2.87,0-5.2-2.33-5.2-5.2V6.87C2.33,4,4.66,1.67,7.53,1.67Z"/>
  <path class="cls-3" d="M31.31,25.59c.7-.17,13.17-3.29,14.4-3.6-1.04-.75-14.47-10.48-15.52-11.23.1,1.27,1.06,14.12,1.11,14.83Z"/>
  <path class="cls-3" d="M13.52,22.05c1.24.3,13.77,3.35,14.46,3.52.05-.72.93-13.55,1.02-14.82-1.04.76-14.44,10.54-15.49,11.3Z"/>
  <path class="cls-3" d="M19.13,41.4c.67-1.09,7.44-12.06,7.82-12.67-.67-.27-12.6-5.08-13.78-5.55.4,1.22,5.56,16.99,5.96,18.22Z"/>
  <path class="cls-3" d="M20.14,42.06c1.29,0,17.88-.04,19.17-.04-.83-.97-9.17-10.8-9.63-11.35-.46.55-8.72,10.41-9.54,11.39Z"/>
  <path class="cls-3" d="M32.3,28.73c.38.61,7.21,11.51,7.88,12.59.39-1.22,5.49-17.01,5.89-18.24-1.18.48-13.11,5.38-13.77,5.65Z"/>
  <rect class="cls-3" y="60.15" width="258" height="13.5"/>
  <text class="cls-2" transform="translate(58 70.03)"><tspan x="0" y="0"> </tspan></text>
  <g>
    <path class="cls-1" d="M105.16,64.61h1.48c.48,0,.84.07,1.07.22.25.14.38.33.38.56,0,.21-.12.4-.37.57-.26.17-.59.26-1,.26h-1.55v-1.61ZM105.16,70.96v-3h2.6c.48,0,.95-.05,1.4-.14.45-.1.88-.25,1.3-.47.42-.22.75-.49,1-.83.24-.34.36-.72.36-1.14s-.1-.83-.31-1.15c-.22-.32-.54-.6-.95-.84-.82-.45-2.09-.68-3.81-.68h-5.42v8.25h3.83Z"/>
    <path class="cls-1" d="M115.88,67.54l1.01-2.36,1,2.36h-2ZM114.51,70.96l.96-2.25h2.87l.91,2.25h3.86l-3.87-8.27h-3.96l-3.91,8.27h3.13Z"/>
    <path class="cls-1" d="M129.7,64.48c.46,0,.8.08,1.02.24.25.14.38.33.38.55s-.12.41-.36.55c-.23.15-.57.23-1.01.23h-1.83v-1.56h1.79ZM124.08,70.96h3.83v-3.17h1.12l1.87,3.17h4.21l-2.25-3.59c.49-.12.9-.29,1.25-.52.34-.23.59-.5.75-.79.14-.29.22-.58.22-.87,0-.47-.18-.9-.53-1.29-.36-.37-.88-.67-1.56-.87-.34-.11-.7-.19-1.09-.24-.39-.05-.82-.07-1.29-.07h-6.53v8.25Z"/>
    <path class="cls-1" d="M138.07,70.96v-6.71h-2.59v-1.54h8.75v1.49h-2.52v6.76h-3.64Z"/>
    <path class="cls-1" d="M144.59,68.59l3.48-.47c.11.32.4.57.86.76.46.19.93.28,1.42.28.2,0,.39-.02.57-.05.19-.03.36-.07.5-.12.29-.1.43-.21.43-.35,0-.24-.37-.42-1.11-.56l-2.38-.43c-.89-.17-1.64-.43-2.22-.78-.58-.35-.87-.88-.87-1.59,0-.17,0-.28.02-.33.05-.46.31-.86.8-1.22.48-.35,1.12-.63,1.91-.84.79-.2,1.58-.3,2.37-.3.7,0,1.36.07,2,.22.34.08.65.17.93.26.27.11.54.24.81.41.53.31.93.7,1.21,1.15l-3.12.65c-.12-.27-.36-.48-.71-.61-.36-.14-.77-.21-1.24-.21-.36,0-.68.04-.95.13-.28.1-.42.21-.42.34,0,.25.35.43,1.05.55l2.41.38c.95.14,1.71.4,2.3.78.32.2.57.43.75.71.17.28.25.61.25,1,0,.46-.14.85-.43,1.19-.3.34-.7.63-1.22.87-.24.11-.51.21-.81.3-.31.1-.62.17-.94.23-.65.12-1.33.18-2.05.18-.88,0-1.73-.09-2.54-.28-.81-.19-1.48-.47-2.03-.86-.55-.38-.9-.84-1.05-1.39Z"/>
  </g>
</svg>