<?xml version="1.0" encoding="UTF-8"?>
<svg id="Layer_1" data-name="Layer 1" xmlns="http://www.w3.org/2000/svg" viewBox="0 0 179.88 121.07">
  <defs>
    <style>
      .cls-1 {
        fill: #b70f2a;
      }

      .cls-2 {
        fill: #fff;
      }

      .cls-3 {
        stroke: #fff;
        stroke-width: 2.75px;
      }

      .cls-3, .cls-4 {
        fill: #005847;
      }
    </style>
  </defs>
  <path d="M164.88,102.13c8.29,0,15-4.25,15-15v-30c0-8.28-5.25-15.25-15-15.5H14.88c-8.29.5-14.88,6.22-14.88,14.5v32.75c0,8.28,6.6,13.25,14.88,13.25h150Z"/>
  <path class="cls-3" d="M14.63,46.38h151c4.97,0,9,4.03,9,9v33c0,4.97-4.03,9-9,9H14.63c-4.97,0-9-4.03-9-9v-33c0-4.97,4.03-9,9-9Z"/>
  <path class="cls-2" d="M161.99,55.53c0-2.17,1.76-3.77,3.84-3.77s3.82,1.6,3.82,3.77-1.76,3.79-3.82,3.79-3.84-1.6-3.84-3.79ZM165.83,58.69c1.71,0,3.06-1.34,3.06-3.16s-1.35-3.14-3.06-3.14-3.08,1.35-3.08,3.14,1.35,3.16,3.08,3.16ZM165.03,57.72h-.66v-4.36h1.66c1.03,0,1.54.38,1.54,1.24,0,.78-.49,1.12-1.13,1.2l1.24,1.92h-.74l-1.15-1.89h-.76v1.89ZM165.82,55.27c.56,0,1.06-.04,1.06-.71,0-.54-.49-.64-.95-.64h-.9v1.35h.79Z"/>
  <path d="M16.43,109.13h1.25l5.16,7.67h.02v-7.67h.92v9.25h-.92l-5.49-8.14h-.03v8.14h-.92v-9.25Z"/>
  <path d="M25.99,115.28c.06,1.34,1.31,2.47,2.65,2.47,1.25-.02,2.14-.76,2.45-1.61h.92c-.48,1.36-1.79,2.4-3.36,2.4-1.91,0-3.56-1.55-3.56-3.57s1.56-3.56,3.55-3.6c1.5.01,2.56.9,3.05,1.75.46.74.56,1.5.52,2.16h-6.22ZM31.33,114.49c-.27-1.61-1.59-2.34-2.67-2.34s-2.41.72-2.66,2.34h5.34Z"/>
  <path d="M33.43,111.55h.87v6.84h-.87v-6.84ZM33.43,109.13h.87v1.57h-.87v-1.57Z"/>
  <path d="M42.56,117.31c0,.74,0,1.66-.62,2.5-.86,1.2-2.44,1.26-2.71,1.26-.98,0-2.87-.37-3.5-2.51h.92c.23.56.9,1.72,2.56,1.72,1.15,0,2.47-.66,2.47-2.55v-.6h-.03c-.51.98-1.64,1.41-2.64,1.41-1.8,0-3.57-1.4-3.57-3.55s1.77-3.62,3.57-3.62c.62,0,1.85.19,2.64,1.4h.03v-1.22h.87v5.76ZM39.03,117.76c1.81,0,2.71-1.62,2.71-2.79,0-1.5-1.17-2.81-2.71-2.81s-2.7,1.31-2.7,2.81,1.15,2.79,2.7,2.79Z"/>
  <path d="M44.05,109.13h.87v3.29h.03c.26-.41.94-1.05,2.1-1.05.84,0,1.54.21,2.16.84.51.5.85,1.29.85,2.41v3.76h-.87v-3.76c0-.89-.27-1.51-.65-1.87-.48-.46-1.1-.59-1.49-.59s-1.01.12-1.49.59c-.37.36-.65.99-.64,1.87v3.76h-.87v-9.25Z"/>
  <path d="M51.63,109.13h.87v3.61h.02c.77-1.11,1.92-1.38,2.66-1.38,2.24,0,3.67,1.75,3.67,3.57,0,1.96-1.52,3.6-3.67,3.6-.71,0-1.9-.25-2.66-1.36h-.02v1.2h-.87v-9.25ZM55.19,112.16c-1.57,0-2.74,1.31-2.74,2.81,0,1.6,1.26,2.79,2.74,2.79,1.67,0,2.8-1.25,2.8-2.77,0-1.74-1.3-2.82-2.8-2.82Z"/>
  <path d="M63.26,111.37c2.02,0,3.59,1.71,3.59,3.59s-1.54,3.59-3.59,3.59-3.56-1.69-3.56-3.54c0-2.16,1.76-3.64,3.56-3.64ZM63.27,117.76c1.32,0,2.7-1.05,2.7-2.84s-1.52-2.76-2.7-2.76c-1.25,0-2.7,1.02-2.7,2.84,0,1.59,1.29,2.76,2.7,2.76Z"/>
  <path d="M68.05,111.55h.87v.99h.02c.41-.96,1.19-1.11,1.92-1.16v.92c-.61.05-1.14.27-1.47.67-.3.37-.48.86-.48,1.41v4h-.87v-6.84Z"/>
  <path d="M71.64,109.13h.87v3.29h.02c.26-.41.94-1.05,2.1-1.05.84,0,1.54.21,2.16.84.51.5.85,1.29.85,2.41v3.76h-.87v-3.76c0-.89-.27-1.51-.65-1.87-.47-.46-1.1-.59-1.49-.59s-1.01.12-1.49.59c-.37.36-.65.99-.64,1.87v3.76h-.87v-9.25Z"/>
  <path d="M82.45,111.37c2.02,0,3.59,1.71,3.59,3.59s-1.54,3.59-3.59,3.59-3.56-1.69-3.56-3.54c0-2.16,1.76-3.64,3.56-3.64ZM82.47,117.76c1.32,0,2.7-1.05,2.7-2.84s-1.52-2.76-2.7-2.76c-1.25,0-2.7,1.02-2.7,2.84,0,1.59,1.29,2.76,2.7,2.76Z"/>
  <path d="M90.52,111.37c2.02,0,3.59,1.71,3.59,3.59s-1.54,3.59-3.59,3.59-3.56-1.69-3.56-3.54c0-2.16,1.76-3.64,3.56-3.64ZM90.53,117.76c1.32,0,2.7-1.05,2.7-2.84s-1.52-2.76-2.7-2.76c-1.25,0-2.7,1.02-2.7,2.84,0,1.59,1.29,2.76,2.7,2.76Z"/>
  <path d="M102.21,118.38h-.87v-1.2h-.03c-.72,1.09-1.94,1.36-2.66,1.36-2.15,0-3.67-1.64-3.67-3.6,0-1.82,1.44-3.57,3.67-3.57.75,0,1.92.28,2.66,1.35h.03v-3.59h.87v9.25ZM98.65,117.76c1.47,0,2.74-1.19,2.74-2.79,0-1.5-1.16-2.81-2.74-2.81s-2.8,1.09-2.8,2.82c0,1.52,1.12,2.77,2.8,2.77Z"/>
  <path d="M116.61,114.13c-.21,2.75-2.61,4.41-4.89,4.41-2.76,0-4.96-2.24-4.96-4.79,0-2.4,1.99-4.79,4.95-4.79,2.45,0,4.01,1.69,4.37,2.62h-1.07c-.53-.91-1.75-1.79-3.29-1.79-2.34,0-4.04,1.9-4.04,3.96s1.7,3.94,4.07,3.94c1.96,0,3.41-1.45,3.74-2.74h-5.16v-.84h6.27Z"/>
  <path d="M117.85,111.55h.87v.99h.03c.41-.96,1.19-1.11,1.92-1.16v.92c-.61.05-1.14.27-1.47.67-.3.37-.47.86-.47,1.41v4h-.87v-6.84Z"/>
  <path d="M121.73,111.55h.87v6.84h-.87v-6.84ZM121.73,109.13h.87v1.57h-.87v-1.57Z"/>
  <path d="M124.1,109.13h.87v9.25h-.87v-9.25Z"/>
  <path d="M126.48,109.13h.87v9.25h-.87v-9.25Z"/>
  <path d="M139.95,112.36l-1.71,3.26,2.34,2.27-.66.64-2.11-2.06c-.32.61-1.09,2.06-2.81,2.06s-2.91-1.42-2.91-2.82,1.06-2.26,2.14-2.75c-.46-.46-1.04-1.04-1.04-1.94,0-1.17,1.05-2.05,2.22-2.05s2.21.92,2.21,2.16c0,1.31-1.32,1.94-1.8,2.1l1.75,1.72,1.35-2.6h1.04ZM134.87,113.62c-.22.08-.69.31-.91.48-.79.57-.96,1.15-.96,1.66,0,1.12.99,1.9,1.91,1.9,1.25,0,1.84-1.16,2.19-1.85l-2.22-2.19ZM135.39,109.85c-.78.02-1.29.59-1.29,1.16.01.62.54,1.12,1.05,1.57.45-.17,1.56-.55,1.54-1.54.03-.6-.52-1.2-1.3-1.2Z"/>
  <path d="M144.97,109.13h2.33c2.91,0,3.02,2.09,3.02,2.46,0,1.09-.69,1.6-1.01,1.86.92.37,1.54,1.21,1.54,2.27,0,.89-.41,1.7-1.06,2.14-.79.46-1.4.52-2.49.51h-2.33v-9.25ZM145.9,117.54h1.3c.78,0,1.25-.04,1.75-.24.58-.24.97-.87.97-1.57s-.47-1.32-1.09-1.56c-.44-.17-.81-.21-1.8-.21h-1.14v3.59ZM145.9,113.12h1.16c.72,0,1.14-.04,1.59-.26.44-.23.75-.75.75-1.3,0-.42-.15-.72-.39-1.01-.36-.41-.92-.57-1.87-.57h-1.24v3.15Z"/>
  <path d="M158.86,118.38h-.88v-1.2h-.03c-.75,1.12-1.95,1.36-2.66,1.36-2.15,0-3.67-1.64-3.67-3.6,0-1.82,1.44-3.57,3.67-3.57.74,0,1.94.24,2.66,1.38h.03v-1.2h.88v6.84ZM155.3,117.76c1.48,0,2.74-1.19,2.74-2.79,0-1.5-1.16-2.81-2.74-2.81s-2.8,1.09-2.8,2.82c0,1.52,1.12,2.77,2.8,2.77Z"/>
  <path d="M160.32,111.55h.87v.99h.03c.41-.96,1.19-1.11,1.92-1.16v.92c-.61.05-1.14.27-1.48.67-.3.37-.47.86-.47,1.41v4h-.87v-6.84Z"/>
  <path d="M72.06,54.23l-.09-.09c-1.58-2.26-1.71-7.52-2.17-10.93l-.25-1.75c-.25-2.25-.59-3.88-.85-5.28-.64-3.43-1.35-6.74-1.62-10.35-.68-9.1,3.18-16.02,10.17-17.46,1.06-.22,2.39-.56,3.78-.45,2.05.15,3.7,1.01,5.4,1.53-.18-2.23-2.12-4.51-.54-6.39.7-.84,2.74-1.39,3.96-.63.75.46,1.04,1.72,1.44,2.52.46-.36,1.05-.77,1.63-1.35l.32-.26c.26-.19.31-.22.57-.36.76-.42,1.67-1.1,2.7-1.26,2.6-.42,5.64.15,8.28-.18,1.59-.2,3.36-1.43,4.77-1.53.51-.04.84.16.9.54.18,1.15-.85,2.5-1.08,3.42-.4,1.58-.36,2.33-.99,3.6-.21.43-.37.8-.63,1.17.86.46,1.96.74,2.88,1.17,1.62.75,2.87,1.86,3.96,3.15,1.04,1.23,2.18,2.69,2.7,4.41,1.48,4.93-.04,10.79-1.44,14.76-1.1,3.1-2.85,5.75-4.05,8.73l-2.79,4.95c-.58.75-7.37,8.59-7.97,9.31-1.32,1.57-4.3,3.17-6.58,3.7-4.44,1.04-6.83-2.08-10.17-2.7-3.14-.58-7.95.13-10.71-.9-.59-.22-1.07-.71-1.53-1.08"/>
  <path class="cls-4" d="M87.93,4.1c-1.15.68-.13,2.58.18,3.78.2.78.29,1.95.54,2.79.3-.08.35-.12.45-.27.77-1.15.01-5.48-.72-6.12-.1-.08-.15-.18-.45-.18Z"/>
  <path class="cls-4" d="M98.71,2.76c-1.31.15-2.78.53-3.69,1.08-.72.43-1.37.82-1.89,1.44-.41.49-.63.85-.9,1.53,1.24-.57,2.41-1.46,3.69-1.98,2.05-.84,4.33-1.08,6.57-1.8-.92-.19-2.49-.42-3.78-.27Z"/>
  <path class="cls-4" d="M107.1,2.75c-.54.17-1.23.57-1.8.72-4.44,1.17-8.85,1.75-12.15,3.96-1.27.84-2.64,1.92-2.97,3.69,4.14,1.22,13.95-2,15.75-4.14.83-1,1.55-2.55,1.55-4.34,0,0-.38.12-.38.11Z"/>
  <path class="cls-1" d="M79.77,10.26c-6.16.63-8.94,4.58-9.81,10.53-.23,1.53-.53,3.52-.36,5.4.22,2.46.88,4.89,1.26,7.11.41,2.44.74,4.82,1.08,7.29.46,3.41-.5,8.63,1.08,10.89l.09.09c.46.37.94.86,1.53,1.08,2.76,1.03,7.57.32,10.71.9,3.34.62,5.73,3.73,10.17,2.7,2.28-.53,4.16-2.48,5.49-4.05.6-.72,1.4-1.32,1.98-2.07,3.88-5.03,7.22-10.73,9.72-17.1,1.12-2.86,2.7-5.97,2.97-9.63.39-5.27-2.36-9.06-5.58-10.8-1.89-1.02-6.02-2.36-8.78-1.78-.41.08-1.28.39-1.66.52-1.46.46-3.07.82-4.59,1.08-1.4.24-2.84-.05-4.25.15-.66.09-1.04.99-1.69,1.02-.62.03-2.46-1.74-3.06-2.07-1.51-.84-3.82-1.52-6.3-1.26Z"/>
  <path d="M80.38,26.76c.89-.67,1.14-2.88,1.54-4.05.22-.66.52-1.34.81-1.92.83-1.67,1.77-2.98,2.61-4.59-.11-.01-.4-.12-.63-.09-.29.04-.7.42-.92.54-2.46,1.4-3.91,3.34-4.62,6.49-.17.76-.35,2.04-.13,2.86.09.33.22.73.5.83,0,0,.46.07.66,0,.2-.07.18-.08.18-.08Z"/>
  <path class="cls-2" d="M83.64,17.37s-.32.35-.34.36c-1.52,1.18-4.19,5.2-3.62,8.37.33.26.62.03.81-.27.46-.73.42-2.53.72-3.42.48-1.44,1.47-2.71,2.16-3.96.15-.27.56-1.16.27-1.08Z"/>
  <g>
    <path class="cls-2" d="M13.69,87.29c-1.01,0-1.47-.2-1.47-.61,0-.2.34-.46.63-.88.63-.97.71-2.48.84-4.67.71-12.33,2.02-18.59,2.02-19.68,0-2.17-1.22-3.31-1.22-3.94,0-.34.63-.8,1.89-.8,1.18,0,2.48.55,3.95.55,1.55,0,3.07-.55,4.62-.55,1.47,0,2.77.5,4.03.5,1.6,0,3.19-.5,4.41-.5.29,0,.46.08.46.55,0,.92-.8,3.27-.8,6.9,0,3.93,1.01,9.02,1.55,15.45.21,2.48.25,4.46,1.3,6.01.17.29.42.46.42.76,0,.53-.5.73-1.64.73-1.26,0-2.56-.28-3.86-.28-1.18,0-2.35.16-3.61.16-.8,0-1.22-.12-1.22-.37,0-.41.71-.62,1.3-1.72.76-1.39,1.34-4.5,1.34-8.95,0-2.65-.38-3.37-1.97-3.37-2.02,0-3.65,1.18-4.83,1.18-1.39,0-2.27-.97-2.27-2.74s.97-3.36,1.76-3.36c.63,0,.88,2.05,3.57,2.05,3.74,0,3.86-1.71,3.86-4.8v-.58c0-3.09-.97-4.55-3.7-4.55-4.07,0-7.18,4.68-7.18,13.11,0,6.81,2.52,10.68,5.12,10.68.84,0,1.34-.5,1.51-.5s.59.59.59,1.34c0,1.47-1.3,2.67-3.28,2.67-.76,0-2.06-.24-3.91-.24-1.97,0-3.28.45-4.24.45Z"/>
    <path class="cls-2" d="M37.41,70.08c0-2.77-1.39-2.64-1.39-3.47,0-.33.34-.58.8-.58.59,0,1.47.37,2.65.37s2.65-.79,4.41-.79c4.45,0,8.83,5.48,8.83,12.84,0,5.51-2.48,8.91-6.06,8.91-2.39,0-4.07-1.68-4.07-4.16,0-1.01.38-1.6.46-1.6.17,0,.84.88,1.93.88,1.6,0,2.81-2.02,2.81-5.8,0-5.26-1.64-8.32-3.61-8.32-2.35,0-2.39,3.91-2.39,12.53,0,3.24.25,6.18.97,9,.71,2.78,1.72,3.33,1.72,3.87,0,.41-.25.61-.8.61-1.05,0-2.73-1.53-5.42-2.5-1.05-.38-2.06-.25-2.06-1.09,0-.34,1.22-.93,1.22-3.75v-16.94Z"/>
    <path class="cls-2" d="M54.2,69.75c0-2.77-1.39-2.64-1.39-3.47,0-.33.34-.58.8-.58.59,0,1.47.37,2.65.37s2.65-.79,4.41-.79c4.45,0,8.83,5.48,8.83,12.84,0,5.51-2.48,8.91-6.06,8.91-2.39,0-4.07-1.68-4.07-4.16,0-1.01.38-1.6.46-1.6.17,0,.84.88,1.93.88,1.6,0,2.81-2.02,2.81-5.8,0-5.26-1.64-8.32-3.61-8.32-2.35,0-2.39,3.91-2.39,12.53,0,3.24.25,6.18.97,9,.71,2.78,1.72,3.33,1.72,3.87,0,.41-.25.61-.8.61-1.05,0-2.73-1.53-5.42-2.5-1.05-.38-2.06-.25-2.06-1.09,0-.34,1.22-.93,1.22-3.75v-16.94Z"/>
    <path class="cls-2" d="M70.9,86.88c-.42,0-.71-.12-.71-.28,0-.2.71-1.04,1.13-2.93.29-1.43.63-6.48.63-15.11,0-3.28-.08-5.52-.46-6.74-.25-.76-.76-1.05-.76-1.22,0-.38.92-.59,2.44-1.09,2.24-.72,3.67-2.29,4.59-2.29.42,0,.67.2.67.57,0,.5-.92.92-1.55,2.69-.76,2.15-.76,6.78-.76,14.19,0,4.38.04,7.58.84,9.56.55,1.35,1.3,1.73,1.3,2.34,0,.24-.29.41-.76.41-.34,0-1.43-.24-3.37-.24-1.27,0-2.36.16-3.24.16Z"/>
    <path class="cls-2" d="M93.14,80.01c.25,0,.46.38.46,1.1,0,3.19-2.51,5.83-6.37,5.83-4.88,0-8.27-4.19-8.27-10.38s3.02-11.43,5.08-11.43c.67,0,1.68.34,3.03.34,1.26,0,2.27-.34,3.02-.34,1.21,0,1.21,1.01,1.46,2.39.75,3.74,2.34,5.88,2.34,6.81,0,.76-1.21.84-3.52,1.6-2.47.84-4.03,1.64-5,1.64-1.22,0-1.89-.71-1.89-1.6,0-.8.5-1.39,1.18-1.39.76,0,.72.67,1.47.67,1.35,0,2.82-.67,2.82-1.43,0-.42-.55-1.39-1.3-3.28-.76-1.89-.55-2.61-1.56-2.61-2.06,0-3.58,2.4-3.58,6.35,0,4.88,2.73,8.09,6.1,8.09,2.89,0,3.77-2.36,4.52-2.36Z"/>
    <path class="cls-2" d="M97.48,63.09c0-2.94-.88-2.9-.88-3.11,0-.34.88-.59,2.35-1.05,2.35-.71,3.78-2.35,4.71-2.35.42,0,.67.21.67.59,0,.59-1.01,1.01-1.56,2.22-1.05,2.27-1.05,6.8-1.05,13.69,0,7.77.13,11.63,2.78,11.63,2.02,0,3.54-2.52,3.54-7.14,0-3.57-1.14-6.72-2.95-8.82-1.1-1.26-2.11-1.51-2.11-1.89s.76-.42,1.85-.55c2.11-.25,3.03-1.26,3.37-1.26.8,0,4.33,3.44,4.33,10.33s-2.94,11.18-7.44,11.18c-1.26,0-3.08-.47-5.34-.47-1.09,0-1.93.13-2.65.13-1.22,0-1.81-.08-1.81-.38,0-.64,2.18-1.82,2.18-7.15v-15.62Z"/>
    <path class="cls-2" d="M129.07,80.68c.25,0,.46.38.46,1.1,0,3.19-2.51,5.83-6.37,5.83-4.88,0-8.28-4.19-8.28-10.38s3.02-11.43,5.08-11.43c.67,0,1.68.34,3.03.34,1.26,0,2.27-.34,3.02-.34,1.21,0,1.21,1.01,1.46,2.39.75,3.74,2.34,5.88,2.34,6.81,0,.76-1.21.84-3.51,1.6-2.47.84-4.03,1.64-5,1.64-1.22,0-1.89-.71-1.89-1.6,0-.8.5-1.39,1.18-1.39.76,0,.71.67,1.47.67,1.35,0,2.82-.67,2.82-1.43,0-.42-.55-1.39-1.3-3.28-.76-1.89-.55-2.61-1.56-2.61-2.06,0-3.58,2.4-3.58,6.35,0,4.88,2.74,8.09,6.1,8.09,2.89,0,3.77-2.36,4.52-2.36Z"/>
    <path class="cls-2" d="M145.95,80.35c.25,0,.46.38.46,1.1,0,3.19-2.51,5.83-6.37,5.83-4.88,0-8.27-4.19-8.27-10.38s3.02-11.43,5.08-11.43c.67,0,1.68.34,3.03.34,1.26,0,2.27-.34,3.02-.34,1.21,0,1.21,1.01,1.46,2.39.75,3.74,2.34,5.88,2.34,6.81,0,.76-1.21.84-3.52,1.6-2.47.84-4.03,1.64-5,1.64-1.22,0-1.89-.71-1.89-1.6,0-.8.5-1.39,1.18-1.39.76,0,.72.67,1.47.67,1.35,0,2.82-.67,2.82-1.43,0-.42-.55-1.39-1.3-3.28-.76-1.89-.55-2.61-1.56-2.61-2.06,0-3.58,2.4-3.58,6.35,0,4.88,2.73,8.09,6.1,8.09,2.89,0,3.77-2.36,4.52-2.36Z"/>
    <path class="cls-2" d="M159.24,86.31c-3.31,0-5.24-2.17-5.24-4.05,0-.67.25-1.01.71-1.01.84,0,.97,2.44,3.69,2.44,1.59,0,2.64-1.05,2.64-2.44,0-1.81-1.72-2.6-3.77-4.24-2.35-1.85-3.48-3.95-3.48-6.63,0-3.53,2.1-5.88,5.58-5.88,1.55,0,3.06.67,4.62.67s2.4-.46,2.73-.46c.12,0,.17.13.17.42,0,.67-.8,1.76-1.51,4.15-.17.55-.46.8-1.01.8-1.51,0-4.12-2.39-6.38-2.39-.96,0-1.63.67-1.63,1.68,0,1.09.96,2.18,2.93,3.36,2.73,1.64,4.96,2.65,6.26,3.7.63.5,1.18,1.64,1.18,3.11,0,3.82-3.11,6.78-7.48,6.78Z"/>
    <path class="cls-2" d="M148.48,66.88c-.47,0-1.06-.1-1.06-.44,0-.25,1.05-1.76,1.25-2.69-1.42-.42-1.94-1.83-1.94-2.75,0-1.34,1-3.25,3.44-3.25,1.89,0,2.5,2.28,2.5,3.25,0,1.43-1.28,5.87-4.19,5.87Z"/>
  </g>
</svg>