<?xml version="1.0" encoding="UTF-8"?>
<svg id="Layer_1" data-name="Layer 1" xmlns="http://www.w3.org/2000/svg" viewBox="0 0 172.02 130.9">
  <defs>
    <style>
      .cls-1 {
        fill: #006ab1;
      }

      .cls-2 {
        fill: #fff;
      }
    </style>
  </defs>
  <polygon class="cls-1" points="4.95 115.69 8.57 104.91 16.62 104.91 20.33 115.69 13.79 115.69 12.46 111.19 11.23 115.69 4.95 115.69"/>
  <polygon class="cls-1" points="4.95 115.69 0 130.37 7.16 130.37 8.57 125.51 16.62 125.51 18.03 130.37 25.28 130.37 20.33 115.69 13.79 115.69 15.12 120.2 9.9 120.2 11.23 115.69 4.95 115.69"/>
  <path class="cls-1" d="M99.97,120.73h0c0-5.66,4.77-10.17,10.61-10.17s10.52,4.51,10.52,10.17h-5.83c0-2.74-2.03-4.95-4.68-4.95s-4.6,2.21-4.6,4.95h-6.01Z"/>
  <path class="cls-1" d="M99.97,120.73c0,5.66,4.77,10.17,10.61,10.17s10.52-4.51,10.52-10.17h-5.83c0,2.74-2.03,4.95-4.68,4.95s-4.6-2.21-4.6-4.95h-6.01Z"/>
  <path class="cls-1" d="M131.8,111.01v5.39c-2.03-.09-5.22,0-5.22,4.24v9.72h-5.66v-19.18h5.39v2.83c2.03-3.36,5.48-3.01,5.48-3.01Z"/>
  <path class="cls-1" d="M138.16,118.61c.97-4.42,4.95-7.87,9.81-7.87,3.98,0,7.43,2.39,9.02,5.75l-2.83,2.12h-6.98l2.56-1.94c-.71-.71-1.94-.88-2.83-.8-1.68.18-2.83,1.24-3.36,2.65l-5.39.09Z"/>
  <path class="cls-1" d="M138.16,118.61c-.09.71-.18,1.41-.18,2.12,0,5.48,4.42,9.99,9.99,9.99,3.8,0,7.16-2.21,8.84-5.39l-4.24-2.83c-.71,1.86-2.39,3.18-4.6,3.18-.8,0-1.77-.18-2.3-.71l8.49-6.36h-6.98l-3.54,2.74c-.18-.18-.18-.53-.26-.62-.09-.8,0-1.5.18-2.21l-5.39.09Z"/>
  <path class="cls-1" d="M51.8,118.61c.97-4.42,4.95-7.87,9.81-7.87,3.98,0,7.34,2.39,9.02,5.75l-2.83,2.12h-6.98l2.56-1.94c-.71-.71-1.86-.88-2.83-.8-1.68.18-2.83,1.24-3.36,2.65l-5.39.09Z"/>
  <path class="cls-1" d="M51.8,118.61c-.09.71-.18,1.41-.18,2.12,0,5.48,4.42,9.99,9.99,9.99,3.8,0,7.16-2.21,8.84-5.39l-4.24-2.83c-.71,1.86-2.39,3.18-4.6,3.18-.8,0-1.68-.18-2.3-.71l8.49-6.36h-6.98l-3.54,2.74c-.18-.18-.27-.53-.27-.62-.09-.8,0-1.5.18-2.21l-5.39.09Z"/>
  <path class="cls-1" d="M80.44,118.52c-2.39-.35-4.15-.53-4.07-1.68,0-1.33,2.03-1.33,3.54-1.15,1.68,0,3.36.44,3.8.62v-4.95c-1.33-.35-3.01-.44-4.77-.44-4.95,0-8.84,1.86-8.84,6.36,0,3.36,2.39,4.51,5.13,5.13,2.92.71,4.95.27,4.95,1.86,0,1.33-2.12,1.41-3.62,1.41-2.47,0-5.13-.8-6.1-1.15v5.04c1.77.62,4.15.97,6.72.97,3.71,0,8.49-2.03,8.49-6.54,0-3.45-2.21-5.04-5.22-5.48Z"/>
  <path class="cls-1" d="M95.47,118.52c-2.3-.35-4.15-.53-4.07-1.68.09-1.33,2.03-1.33,3.54-1.15,1.68,0,3.27.44,3.8.62v-4.95c-1.24-.35-3.01-.44-4.77-.44-4.95,0-8.84,1.86-8.84,6.36,0,3.36,2.3,4.51,5.21,5.13,2.83.71,4.86.27,4.86,1.86,0,1.33-2.12,1.41-3.71,1.41-2.39,0-4.95-.8-6.1-1.15v5.04c1.86.62,4.24.97,6.81.97,3.71,0,8.4-2.03,8.4-6.54,0-3.45-2.21-5.04-5.13-5.48Z"/>
  <path class="cls-1" d="M166.89,118.52c-2.47-.35-4.24-.53-4.15-1.68.09-1.33,2.03-1.33,3.54-1.15,1.68,0,3.36.44,3.8.62v-4.95c-1.24-.35-3.01-.44-4.77-.44-4.95,0-8.84,1.86-8.84,6.36,0,3.36,2.3,4.51,5.22,5.13,2.92.71,4.95.27,4.95,1.86,0,1.33-2.21,1.41-3.71,1.41-2.39,0-5.04-.8-6.1-1.15v5.04c1.77.62,4.24.97,6.72.97,3.71,0,8.49-2.03,8.49-6.54,0-3.45-2.21-5.04-5.13-5.48Z"/>
  <path class="cls-1" d="M33.24,125.33c-2.83,0-5.3-1.68-5.3-4.6,0-2.65,2.12-4.42,4.95-4.6,1.68-.18,3.18,0,4.33.26v-5.22c-1.77-.35-3.27-.44-5.04-.44-5.66.09-9.9,4.6-9.9,9.99,0,5.75,4.51,9.9,10.17,9.99,2.12.09,3.71,0,5.39-.44v-5.39c-1.77.35-2.74.44-4.6.44Z"/>
  <path class="cls-1" d="M48,125.33c-2.92,0-5.39-1.68-5.39-4.6,0-2.65,2.12-4.42,4.95-4.6,1.77-.18,3.18,0,4.33.26v-5.22c-1.77-.35-3.27-.44-4.95-.44-5.66.09-9.99,4.6-9.99,9.99,0,5.75,4.51,9.9,10.17,9.99,2.21.09,3.71,0,5.39-.44v-5.39c-1.68.35-2.74.44-4.51.44Z"/>
  <rect class="cls-1" x="132.59" y="111.19" width="5.66" height="19.18"/>
  <rect class="cls-1" x="132.86" y="103.5" width="5.22" height="5.3"/>
  <rect class="cls-1" x="41.63" width="87.52" height="87.7"/>
  <rect class="cls-2" x="61.77" y="59.36" width="47.42" height="8.2"/>
  <path class="cls-2" d="M61.77,28.7c0-4.81,2.14-9.09,8.91-9.09,6.42,0,9.09,3.92,9.09,8.2v3.39h-5.35v-3.21c0-2.32-1.78-3.56-3.56-3.56-1.96,0-3.74,1.6-3.74,3.92v17.82c0,2.32,1.96,3.74,3.39,3.74,2.14,0,3.92-1.6,3.92-4.99v-4.81h-3.39v-4.28h8.74v18.54h-5.35v-3.03c-1.25,3.21-2.85,3.57-5.53,3.57-2.32,0-7.13-1.25-7.13-7.84v-18.36Z"/>
  <polygon class="cls-2" points="85.3 54.37 85.3 20.32 93.5 20.32 97.24 44.92 101.16 20.32 109.19 20.32 109.19 54.37 103.66 54.37 103.66 28.16 99.74 54.37 95.28 54.37 90.83 28.16 90.83 54.37 85.3 54.37"/>
  <path class="cls-1" d="M143,85.74c0,1.67-1.31,2.99-3.02,2.99s-3.04-1.31-3.04-2.99,1.35-2.95,3.04-2.95,3.02,1.31,3.02,2.95ZM137.69,85.74c0,1.31.97,2.36,2.3,2.36s2.25-1.04,2.25-2.34-.95-2.38-2.27-2.38-2.29,1.06-2.29,2.36ZM139.51,87.29h-.68v-2.95c.27-.05.65-.09,1.13-.09.56,0,.81.09,1.03.22.16.13.29.36.29.65,0,.32-.25.58-.61.68v.04c.29.11.45.32.54.72.09.45.14.63.22.74h-.74c-.09-.11-.14-.38-.23-.72-.05-.32-.23-.47-.61-.47h-.32v1.19ZM139.53,85.61h.32c.38,0,.68-.13.68-.43,0-.27-.2-.45-.63-.45-.18,0-.31.02-.38.04v.85Z"/>
</svg>