<?xml version="1.0" encoding="UTF-8"?>
<svg id="_Layer_" data-name="&amp;lt;Layer&amp;gt;" xmlns="http://www.w3.org/2000/svg" viewBox="0 0 268.56 90.67">
  <defs>
    <style>
      .cls-1 {
        stroke: #fff;
        stroke-width: .5px;
      }

      .cls-1, .cls-2 {
        fill: #ed1c24;
      }

      .cls-3 {
        fill: none;
      }
    </style>
  </defs>
  <rect class="cls-3" width="268.56" height="90.67"/>
  <path class="cls-2" d="M116.29,27.77h28.87l-3.12,10.07-7.82.02-6.58,20.9h-11.75l6.5-20.9-9.22-.02,3.12-10.07Z"/>
  <path class="cls-2" d="M223.49,27.77l-3.86,14.8-4.01-14.8h-10.75l-7.93,25.56-2.64-25.56h-12.95l-14.77,24.89-3.05-6.37c2.14-.55,6.17-1.96,7.78-6.29,2.95-7.93-2.1-12.23-9.77-12.23h-14.49l-9.61,30.99h11.69l3.91-12.21,4.25,12.21h17.9l2.59-5.55h8.6l.35,5.55h19.92l4.45-15.4,2.89,15.4h11.65l9.62-30.99h-11.77ZM161.33,38.45c-.48,1.28-1.88,1.86-3.86,1.86h-2.51l1.33-4.15h2.91c1.68,0,2.78.56,2.13,2.29ZM181.08,46.31l4.69-9.94.39,9.94h-5.08Z"/>
  <path class="cls-2" d="M237.84,27.77h22.13l-2.71,8.62h-10.97l-.92,2.73h11.29l-2.65,8.13h-11.06l-.94,3.04h11.37l-2.62,8.47h-22.53l9.62-30.99Z"/>
  <path class="cls-1" d="M33.94,59.03c-.31-.02-.17-.31-.02-.31l54.04-.8c.41-1.41.76-2.86,1.04-4.33l-53.12-.65c-.31-.02-.17-.31-.02-.31l53.41-.81c.21-1.42.35-2.87.42-4.34l-51.88-.64c-.31-.02-.17-.31-.02-.31l51.99-.8c0-.14.02-.27.02-.41,0-1.3-.09-2.58-.2-3.85l-49.94-.64c-.31-.02-.17-.31-.02-.31l49.77-.79c-.19-1.51-.45-2.99-.79-4.45l-46.96-.64c-.31-.02-.18-.3-.02-.3l46.54-.79c-.39-1.42-.85-2.82-1.37-4.18l-43.31-.63c-.31-.02-.17-.31-.02-.31l42.67-.76C79.29,11.85,63.55.77,45.21.77,23.36.77,5.21,16.51,1.4,37.26l64.04-1-.84,2.65-63.29-1.11c-.3,1.8-.5,3.64-.58,5.5l62.79-.98-.84,2.65L.71,43.88c-.02.49-.07.97-.07,1.46,0,1.37.08,2.72.21,4.07l60.77-.99-.84,2.65L.88,49.97c.19,1.88.54,3.7.96,5.5l57.86-.99-.84,2.65-56.87-1.1c.45,1.83,1.01,3.61,1.68,5.34l54.16-.95-.84,2.65-53.1-1.11c.76,1.89,1.65,3.71,2.65,5.46l49.41-.98-.84,2.65-48.21-1.08c1.13,1.9,2.37,3.74,3.75,5.44l43.38-1-.84,2.65-42.06-1.1c8.18,9.71,20.41,15.9,34.1,15.9,19.6,0,36.21-12.67,42.18-30.25l-53.45-.64Z"/>
  <path class="cls-2" d="M264.15,33.49h-.82v-4.04h1.43c.99,0,1.58.3,1.58,1.22,0,.74-.42,1.01-.92,1.05l.98,1.77h-.97l-.88-1.7h-.39v1.7ZM264.88,31.1c.37,0,.59-.08.59-.53,0-.42-.42-.45-.74-.45h-.57v.97h.72ZM264.74,35.22c-1.89,0-3.58-1.38-3.58-3.75s1.69-3.76,3.58-3.76,3.58,1.38,3.58,3.76-1.69,3.75-3.58,3.75ZM264.74,28.59c-1.41,0-2.55,1.15-2.55,2.88s1.14,2.89,2.55,2.88h0c1.38,0,2.55-1.15,2.55-2.88s-1.17-2.88-2.55-2.88Z"/>
</svg>