<?xml version="1.0" encoding="UTF-8"?>
<svg id="Layer_1" data-name="Layer 1" xmlns="http://www.w3.org/2000/svg" viewBox="0 0 629.06 84.22">
  <defs>
    <style>
      .cls-1, .cls-2 {
        fill: #fff;
      }

      .cls-3, .cls-2 {
        isolation: isolate;
      }

      .cls-4 {
        fill: #004da7;
      }

      .cls-2 {
        font-family: MyriadPro-Regular, 'Myriad Pro';
        font-size: 37.86px;
      }
    </style>
  </defs>
  <g>
    <path class="cls-1" d="M41.44,79.7c-10.96,0-21.18-3.88-28.78-10.92C4.82,61.52.5,51.48.5,40.52S4.8,19.58,12.6,12.32C20.14,5.31,30.23,1.45,41.02,1.45s19.44,3.11,26.21,9l.83.72V2.28h30.28c10.81,0,20.58,3.64,27.52,10.25,5.27,5.02,8.72,11.38,10.26,18.91l.3,1.46,14.37-30.05c.65-1.45,1.97-2.35,3.43-2.35s2.78.9,3.43,2.34l36.21,75.93h-26.34l-2.69-6h-22.43l-2.59,6h-25.35l1.79-3.74-1.21.51c-5.11,2.15-10.72,3.23-16.7,3.23h-30.28v-5.31l-.74.42c-7.11,3.97-15.34,5.82-25.88,5.82h0ZM40.61,23.97c-10.83,0-14.69,8.55-14.69,16.55s4.13,17.17,15.72,17.17c4.11,0,7.36-.5,10.23-1.59l.32-.12v-.89h-13.96v-20.66h29.83v-12.26l-12.4,10.73-2-2.59c-3.3-4.27-7.57-6.35-13.06-6.35h0ZM93.06,56.66h3.21c9.59,0,15.31-6.03,15.31-16.14s-5.72-16.14-15.31-16.14h-3.21v32.28h0ZM151.05,52.53h4.82l-2.44-5.52-2.37,5.52Z"/>
    <path class="cls-4" d="M154.21,1c1.27,0,2.41.78,2.97,2.05h0s0,.02,0,.02l35.87,75.21h-25.23l-2.42-5.41-.26-.59h-23.08l-.26.6-2.32,5.39h-24.23l.88-1.85,1.13-2.37-2.42,1.02c-5.04,2.12-10.6,3.19-16.51,3.19h-29.78v-5.66l-1.48.83c-7.04,3.93-15.18,5.76-25.64,5.76s-20.93-3.83-28.44-10.79C5.26,61.25,1,51.34,1,40.52S5.24,19.85,12.94,12.68C20.39,5.77,30.36,1.95,41.02,1.95s19.2,3.07,25.89,8.88l1.65,1.44V2.78h29.78c10.68,0,20.33,3.59,27.17,10.11,5.19,4.95,8.59,11.22,10.11,18.64l.59,2.91,1.28-2.68,13.73-28.71h0s0-.02,0-.02c.57-1.26,1.71-2.04,2.97-2.04M55.73,32.18l-1.68-2.17c-3.4-4.4-7.8-6.54-13.45-6.54-11.2,0-15.19,8.81-15.19,17.05s4.26,17.67,16.22,17.67c4.17,0,7.48-.51,10.4-1.62l.64-.24v-1.74h-13.96v-19.66h29.83v-13.85l-1.65,1.43-11.17,9.67M92.56,57.16h3.71c9.9,0,15.81-6.22,15.81-16.64s-5.91-16.64-15.81-16.64h-3.71v33.28M150.3,53.03h6.34l-.62-1.4-1.67-3.77-.93-2.09-.9,2.1-1.62,3.77-.6,1.39M154.21,0c-1.67,0-3.15,1.01-3.88,2.63l-13.73,28.71c-1.55-7.56-5.07-14.08-10.4-19.17-7.03-6.7-16.92-10.39-27.86-10.39h-30.78v8.29C60.75,4.15,51.55.96,41.02.96s-21.13,3.91-28.76,11C4.36,19.31,0,29.45,0,40.52s4.37,21.27,12.32,28.63c7.69,7.13,18.03,11.05,29.12,11.05s18.89-1.85,26.13-5.89v4.95h30.78c6.06,0,11.8-1.13,16.9-3.27l-1.57,3.27h26.47l2.58-6h21.78l2.69,6h27.46L158.1,2.63c-.73-1.63-2.21-2.63-3.88-2.63h0ZM55.59,33.63l11.97-10.36v10.67h-29.83v21.66h13.96v.05c-2.33.88-5.35,1.56-10.05,1.56-11.23,0-15.23-8.61-15.23-16.67s3.73-16.05,14.19-16.05c5.32,0,9.46,2.01,12.66,6.15l2.32,3h0ZM93.56,56.16v-31.28h2.72c9.28,0,14.81,5.85,14.81,15.64s-5.54,15.64-14.81,15.64h-2.72ZM151.81,52.03l1.62-3.77,1.67,3.77h-3.29,0Z"/>
  </g>
  <path class="cls-4" d="M96.27,59.76h-6.31V21.29h6.31c11.37,0,18.4,7.55,18.4,19.23s-7.03,19.23-18.4,19.23h0ZM124,66.01l-4.63,9.66h18.4l2.59-6h26.47l2.69,6h19.44L154.84,4.13c-.31-.72-.93-.72-1.24,0l-20.02,41.86c.22-1.76.34-3.58.34-5.47,0-21.81-15.3-35.15-35.57-35.15h-27.19v32.15h-29.83v14.48h13.96v6c-3,1.45-6.82,2.79-13.64,2.79-12.41,0-18.82-9.2-18.82-20.27s6.31-19.65,17.78-19.65c7.02,0,11.99,3,15.5,7.55l13.13-11.37c-6.1-7.87-15.82-12.51-28.22-12.51-20.27,0-37.43,14.78-37.43,35.98s17.16,36.09,37.84,36.09c14.88,0,23.28-3.95,29.67-8.97h.04v8.05h27.19c10.28,0,19.29-3.43,25.66-9.66h0ZM146.36,55.62l7.03-16.34,7.24,16.34h-14.27Z"/>
  <g class="cls-3">
    <text class="cls-2" transform="translate(215.73 74.76)"><tspan x="0" y="0">G</tspan></text>
    <text class="cls-2" transform="translate(240.18 74.76)"><tspan x="0" y="0">r</tspan></text>
    <text class="cls-2" transform="translate(252.37 74.76)"><tspan x="0" y="0">aphic </tspan></text>
    <text class="cls-2" transform="translate(347.02 74.76)"><tspan x="0" y="0">D</tspan></text>
    <text class="cls-2" transform="translate(372.39 74.76)"><tspan x="0" y="0">esi</tspan></text>
    <text class="cls-2" transform="translate(415.2 74.76)"><tspan x="0" y="0">g</tspan></text>
    <text class="cls-2" transform="translate(436.14 74.76)"><tspan x="0" y="0">n </tspan></text>
    <text class="cls-2" transform="translate(465.17 74.76)"><tspan x="0" y="0">A</tspan></text>
    <text class="cls-2" transform="translate(488.12 74.76)"><tspan x="0" y="0">ssoci</tspan></text>
    <text class="cls-2" transform="translate(564.7 74.76)"><tspan x="0" y="0">a</tspan></text>
    <text class="cls-2" transform="translate(582.8 74.76)"><tspan x="0" y="0">t</tspan></text>
    <text class="cls-2" transform="translate(595.1 74.76)"><tspan x="0" y="0">es</tspan></text>
  </g>
</svg>