<?xml version="1.0" encoding="UTF-8"?>
<svg id="Layer_1" data-name="Layer 1" xmlns="http://www.w3.org/2000/svg" viewBox="0 0 623.96 79.08">
  <defs>
    <style>
      .cls-1 {
        isolation: isolate;
      }

      .cls-2 {
        fill: #004da7;
      }
    </style>
  </defs>
  <path class="cls-2" d="M92.68,56.16h-6.31V17.7h6.31c11.37,0,18.4,7.55,18.4,19.23s-7.03,19.23-18.4,19.23h0ZM120.4,62.42l-4.63,9.66h18.4l2.59-6h26.47l2.69,6h19.44L151.24.54c-.31-.72-.93-.72-1.24,0l-20.02,41.86c.22-1.76.34-3.58.34-5.47,0-21.81-15.3-35.15-35.57-35.15h-27.19v32.15h-29.83v14.48h13.96v6c-3,1.45-6.82,2.79-13.64,2.79-12.41,0-18.82-9.2-18.82-20.27s6.31-19.65,17.78-19.65c7.02,0,11.99,3,15.5,7.55l13.13-11.37C59.55,5.6,49.83.96,37.43.96c-20.27,0-37.43,14.78-37.43,35.98s17.16,36.09,37.84,36.09c14.88,0,23.28-3.95,29.67-8.97h.04v8.05h27.19c10.28,0,19.29-3.43,25.66-9.66h0ZM142.77,52.03l7.03-16.34,7.24,16.34h-14.27Z"/>
  <g class="cls-1">
    <g class="cls-1">
      <path d="M234.47,70.03c-1.48.57-4.43,1.4-7.87,1.4-3.86,0-7.04-.98-9.54-3.37-2.2-2.12-3.56-5.53-3.56-9.5,0-7.61,5.26-13.17,13.82-13.17,2.95,0,5.3.64,6.4,1.17l-.83,2.69c-1.36-.64-3.07-1.1-5.64-1.1-6.21,0-10.26,3.86-10.26,10.26s3.86,10.3,9.84,10.3c2.16,0,3.63-.3,4.39-.68v-7.61h-5.15v-2.65h8.4v12.27Z"/>
    </g>
    <g class="cls-1">
      <path d="M239.35,58.56c0-2.16-.04-4.01-.15-5.72h2.92l.15,3.63h.11c.83-2.46,2.88-4.01,5.11-4.01.34,0,.61.04.91.08v3.14c-.34-.08-.68-.08-1.14-.08-2.35,0-4.01,1.74-4.47,4.24-.08.45-.11,1.02-.11,1.55v9.77h-3.33v-12.61Z"/>
    </g>
    <g class="cls-1">
      <path d="M264.41,66.78c0,1.59.08,3.14.27,4.39h-2.99l-.27-2.31h-.11c-1.02,1.44-2.99,2.73-5.6,2.73-3.71,0-5.6-2.61-5.6-5.26,0-4.43,3.94-6.85,11.02-6.81v-.38c0-1.48-.42-4.24-4.16-4.2-1.74,0-3.52.49-4.81,1.36l-.76-2.23c1.51-.95,3.75-1.59,6.06-1.59,5.6,0,6.97,3.82,6.97,7.46v6.85ZM261.2,61.82c-3.63-.08-7.76.57-7.76,4.13,0,2.2,1.44,3.18,3.1,3.18,2.42,0,3.98-1.51,4.5-3.07.11-.38.15-.76.15-1.06v-3.18Z"/>
      <path d="M269.79,58.83c0-2.35-.08-4.24-.15-5.98h2.95l.19,3.14h.08c1.32-2.23,3.52-3.52,6.51-3.52,4.47,0,7.8,3.75,7.8,9.27,0,6.59-4.05,9.84-8.37,9.84-2.42,0-4.54-1.06-5.64-2.88h-.08v9.96h-3.29v-19.84ZM273.08,63.71c0,.49.04.95.15,1.36.61,2.31,2.61,3.9,5,3.9,3.52,0,5.56-2.88,5.56-7.08,0-3.63-1.93-6.78-5.45-6.78-2.27,0-4.43,1.59-5.04,4.09-.11.42-.23.91-.23,1.33v3.18Z"/>
      <path d="M291.33,44.29h3.33v11.47h.08c.53-.95,1.36-1.82,2.38-2.38.98-.57,2.16-.91,3.41-.91,2.46,0,6.4,1.51,6.4,7.8v10.9h-3.33v-10.52c0-2.95-1.1-5.41-4.24-5.41-2.16,0-3.82,1.51-4.47,3.29-.19.49-.23.98-.23,1.59v11.05h-3.33v-26.88Z"/>
      <path d="M316.05,47.7c0,1.14-.79,2.04-2.12,2.04-1.21,0-2.01-.91-2.01-2.04s.83-2.08,2.08-2.08,2.04.91,2.04,2.08ZM312.34,71.17v-18.32h3.33v18.32h-3.33Z"/>
      <path d="M334.26,70.52c-.87.42-2.8,1.06-5.26,1.06-5.53,0-9.12-3.75-9.12-9.35s3.86-9.77,9.84-9.77c1.97,0,3.71.49,4.62.98l-.76,2.54c-.8-.42-2.04-.87-3.86-.87-4.2,0-6.47,3.14-6.47,6.93,0,4.24,2.73,6.85,6.36,6.85,1.89,0,3.14-.45,4.09-.87l.57,2.5Z"/>
    </g>
    <g class="cls-1">
      <path d="M346.3,46.03c2.01-.34,4.39-.57,7-.57,4.73,0,8.1,1.14,10.33,3.18,2.31,2.08,3.63,5.04,3.63,9.16s-1.33,7.57-3.67,9.92c-2.42,2.38-6.36,3.67-11.32,3.67-2.38,0-4.32-.11-5.98-.3v-25.06ZM349.6,68.59c.83.11,2.04.15,3.33.15,7.08,0,10.87-3.94,10.87-10.83.04-6.02-3.37-9.84-10.33-9.84-1.7,0-2.99.15-3.86.34v20.18Z"/>
    </g>
    <g class="cls-1">
      <path d="M373.41,62.61c.08,4.5,2.92,6.36,6.28,6.36,2.38,0,3.86-.42,5.07-.95l.61,2.38c-1.17.53-3.22,1.17-6.13,1.17-5.64,0-9.01-3.75-9.01-9.27s3.26-9.84,8.59-9.84c6.02,0,7.57,5.22,7.57,8.59,0,.68-.04,1.17-.11,1.55h-12.87ZM383.18,60.23c.04-2.08-.87-5.38-4.62-5.38-3.41,0-4.85,3.07-5.11,5.38h9.73Z"/>
      <path d="M390.07,67.8c1.02.61,2.76,1.29,4.43,1.29,2.38,0,3.52-1.17,3.52-2.73s-.95-2.42-3.37-3.33c-3.33-1.21-4.88-2.99-4.88-5.19,0-2.95,2.42-5.38,6.32-5.38,1.86,0,3.48.49,4.47,1.14l-.8,2.42c-.72-.46-2.04-1.1-3.75-1.1-1.97,0-3.03,1.14-3.03,2.5,0,1.51,1.06,2.2,3.45,3.14,3.14,1.17,4.81,2.76,4.81,5.49,0,3.26-2.54,5.53-6.81,5.53-2.01,0-3.86-.53-5.15-1.29l.79-2.5Z"/>
      <path d="M409.23,47.7c0,1.14-.79,2.04-2.12,2.04-1.21,0-2.01-.91-2.01-2.04s.83-2.08,2.08-2.08,2.04.91,2.04,2.08ZM405.52,71.17v-18.32h3.33v18.32h-3.33Z"/>
    </g>
    <g class="cls-1">
      <path d="M430.05,68.48c0,4.24-.87,6.78-2.61,8.4-1.82,1.63-4.39,2.2-6.7,2.2s-4.62-.53-6.09-1.51l.83-2.57c1.21.79,3.1,1.48,5.38,1.48,3.41,0,5.91-1.78,5.91-6.44v-2.01h-.08c-.98,1.7-2.99,3.07-5.83,3.07-4.54,0-7.8-3.86-7.8-8.93,0-6.21,4.05-9.69,8.29-9.69,3.18,0,4.88,1.63,5.72,3.14h.08l.11-2.76h2.95c-.11,1.29-.15,2.8-.15,5v10.64ZM426.71,60.08c0-.57-.04-1.06-.19-1.48-.61-1.97-2.2-3.56-4.66-3.56-3.18,0-5.45,2.69-5.45,6.93,0,3.6,1.86,6.59,5.41,6.59,2.08,0,3.94-1.29,4.62-3.41.19-.57.26-1.21.26-1.78v-3.29Z"/>
    </g>
    <g class="cls-1">
      <path d="M435.31,57.8c0-1.93-.04-3.44-.15-4.96h2.95l.19,3.03h.08c.91-1.7,3.03-3.41,6.06-3.41,2.54,0,6.47,1.51,6.47,7.8v10.9h-3.33v-10.56c0-2.95-1.1-5.41-4.24-5.41-2.16,0-3.86,1.55-4.47,3.41-.15.42-.23.98-.23,1.55v11.02h-3.33v-13.36Z"/>
    </g>
    <g class="cls-1">
      <path d="M468.58,63.14l-2.65,8.03h-3.41l8.71-25.52h3.94l8.71,25.52h-3.52l-2.73-8.03h-9.05ZM476.99,60.57l-2.54-7.34c-.57-1.67-.95-3.18-1.33-4.66h-.08c-.38,1.48-.76,3.07-1.29,4.62l-2.5,7.38h7.72Z"/>
    </g>
    <g class="cls-1">
      <path d="M486.83,67.8c1.02.61,2.76,1.29,4.43,1.29,2.38,0,3.52-1.17,3.52-2.73s-.95-2.42-3.37-3.33c-3.33-1.21-4.88-2.99-4.88-5.19,0-2.95,2.42-5.38,6.32-5.38,1.86,0,3.48.49,4.47,1.14l-.8,2.42c-.72-.46-2.04-1.1-3.75-1.1-1.97,0-3.03,1.14-3.03,2.5,0,1.51,1.06,2.2,3.45,3.14,3.14,1.17,4.81,2.76,4.81,5.49,0,3.26-2.54,5.53-6.81,5.53-2.01,0-3.86-.53-5.15-1.29l.79-2.5Z"/>
      <path d="M501.83,67.8c1.02.61,2.76,1.29,4.43,1.29,2.38,0,3.52-1.17,3.52-2.73s-.95-2.42-3.37-3.33c-3.33-1.21-4.88-2.99-4.88-5.19,0-2.95,2.42-5.38,6.32-5.38,1.85,0,3.48.49,4.47,1.14l-.79,2.42c-.72-.46-2.04-1.1-3.75-1.1-1.97,0-3.03,1.14-3.03,2.5,0,1.51,1.06,2.2,3.45,3.14,3.14,1.17,4.81,2.76,4.81,5.49,0,3.26-2.54,5.53-6.81,5.53-2.01,0-3.86-.53-5.15-1.29l.79-2.5Z"/>
      <path d="M533.85,61.85c0,6.78-4.73,9.73-9.12,9.73-4.92,0-8.78-3.63-8.78-9.43,0-6.1,4.05-9.69,9.09-9.69s8.82,3.82,8.82,9.39ZM519.35,62.04c0,4.01,2.27,7.04,5.53,7.04s5.57-2.99,5.57-7.12c0-3.1-1.55-7-5.49-7s-5.6,3.63-5.6,7.08Z"/>
      <path d="M551.12,70.52c-.87.42-2.8,1.06-5.26,1.06-5.53,0-9.12-3.75-9.12-9.35s3.86-9.77,9.84-9.77c1.97,0,3.71.49,4.62.98l-.76,2.54c-.8-.42-2.04-.87-3.86-.87-4.2,0-6.47,3.14-6.47,6.93,0,4.24,2.73,6.85,6.36,6.85,1.89,0,3.14-.45,4.09-.87l.57,2.5Z"/>
      <path d="M558.73,47.7c0,1.14-.79,2.04-2.12,2.04-1.21,0-2.01-.91-2.01-2.04s.83-2.08,2.08-2.08,2.04.91,2.04,2.08ZM555.02,71.17v-18.32h3.33v18.32h-3.33Z"/>
    </g>
    <g class="cls-1">
      <path d="M576.75,66.78c0,1.59.08,3.14.26,4.39h-2.99l-.27-2.31h-.11c-1.02,1.44-2.99,2.73-5.6,2.73-3.71,0-5.6-2.61-5.6-5.26,0-4.43,3.94-6.85,11.02-6.81v-.38c0-1.48-.42-4.24-4.16-4.2-1.74,0-3.52.49-4.81,1.36l-.76-2.23c1.51-.95,3.75-1.59,6.06-1.59,5.6,0,6.97,3.82,6.97,7.46v6.85ZM573.53,61.82c-3.63-.08-7.76.57-7.76,4.13,0,2.2,1.44,3.18,3.1,3.18,2.42,0,3.97-1.51,4.5-3.07.11-.38.15-.76.15-1.06v-3.18Z"/>
    </g>
    <g class="cls-1">
      <path d="M585.98,48.45v4.39h4.77v2.54h-4.77v9.88c0,2.27.64,3.56,2.5,3.56.91,0,1.44-.08,1.93-.23l.15,2.54c-.64.23-1.67.45-2.95.45-1.55,0-2.8-.53-3.6-1.4-.91-1.02-1.29-2.65-1.29-4.81v-10h-2.84v-2.54h2.84v-3.41l3.26-.98Z"/>
    </g>
    <g class="cls-1">
      <path d="M596.13,62.61c.08,4.5,2.92,6.36,6.28,6.36,2.38,0,3.86-.42,5.07-.95l.61,2.38c-1.17.53-3.22,1.17-6.13,1.17-5.64,0-9.01-3.75-9.01-9.27s3.26-9.84,8.59-9.84c6.02,0,7.57,5.22,7.57,8.59,0,.68-.04,1.17-.11,1.55h-12.87ZM605.9,60.23c.04-2.08-.87-5.38-4.62-5.38-3.41,0-4.85,3.07-5.11,5.38h9.73Z"/>
      <path d="M612.79,67.8c1.02.61,2.76,1.29,4.43,1.29,2.38,0,3.52-1.17,3.52-2.73s-.95-2.42-3.37-3.33c-3.33-1.21-4.88-2.99-4.88-5.19,0-2.95,2.42-5.38,6.32-5.38,1.86,0,3.48.49,4.47,1.14l-.8,2.42c-.72-.46-2.04-1.1-3.75-1.1-1.97,0-3.03,1.14-3.03,2.5,0,1.51,1.06,2.2,3.45,3.14,3.14,1.17,4.81,2.76,4.81,5.49,0,3.26-2.54,5.53-6.81,5.53-2.01,0-3.86-.53-5.15-1.29l.79-2.5Z"/>
    </g>
  </g>
</svg>