<?xml version="1.0" encoding="UTF-8"?>
<svg id="Layer_1" data-name="Layer 1" xmlns="http://www.w3.org/2000/svg" viewBox="0 0 364.38 115.51">
  <defs>
    <style>
      .cls-1 {
        fill-rule: evenodd;
      }

      .cls-1, .cls-2 {
        fill: #8a003a;
      }
    </style>
  </defs>
  <path class="cls-1" d="M332.75,72.37c-2.08,4.62-6.95,8.27-15.87,10.63-7.77,1.98-19.22,3.08-35.29,3.3-15.89.12-26.55-.82-32.02-2.47-6.31-1.83-7.13-4.12-5.22-8.32l31.57-69.77c.91-2.02,1.05-3.85.55-5.49,0,0,31.69-.47,32.38-.13.14.42-28.81,63.47-28.81,63.47-1.68,3.7-.62,6.41,1.91,8.09,2.32,1.54,5.71,2.07,8.49,2.12,6.24,0,11.95-1.87,14.32-7.11L332.93.58l31.45-.1-31.63,71.89h0ZM100.41,83.47H13.04c1.21-1.2,2.18-2.53,2.92-4.05L50.74,7.76c1.17-2.41,1.56-4.72,1.19-6.79l88.31-.18-8.31,18.3c-5.42-3.1-15.59-6.21-25.46-6.21l-24.21.31-10.25,21.09,27.63.31-7.45,13.34h-26.7l-10.24,21.39,31.04-.3c11.79.3,25.27-3.79,26.08-4.04l-11.96,18.48h0ZM8.26,98.97l321.44.81L0,115.51l8.26-16.54h0ZM180.41,32.08l31.68-20.34c9.38-6.62,9.23-11.39,9.23-11.39l31.99-.2-20.97,15.29-27.99,20.54,13.29,48.25h-.94c-4.23-.04-9.79.04-15.04.12-3.87.05-7.56.11-10.41.14l-3.01-.02-12.43-42.76-19.07,42.64-31.12.38,1.23-1.23c1.29-1.29,2.33-2.75,3.07-4.4L161.96,7.87c1.24-2.74,1.38-4.99.82-6.8l-.28-.91,31.06.05-13.15,31.88h0Z"/>
  <path class="cls-2" d="M344.22,73.99c.56,0,1.1.14,1.63.43.53.29.94.69,1.24,1.23.29.53.44,1.09.44,1.66s-.15,1.12-.44,1.65c-.29.53-.7.94-1.23,1.23-.53.29-1.08.44-1.65.44s-1.12-.15-1.65-.44c-.53-.29-.94-.7-1.23-1.23-.29-.53-.44-1.08-.44-1.65s.15-1.13.45-1.66c.3-.53.71-.94,1.24-1.23.53-.29,1.07-.43,1.63-.43ZM344.22,74.54c-.47,0-.92.12-1.36.36-.44.24-.79.58-1.04,1.02-.25.44-.37.91-.37,1.39s.12.94.37,1.37c.24.44.59.78,1.03,1.02.44.25.9.37,1.38.37s.94-.12,1.38-.37c.44-.24.78-.58,1.02-1.02.24-.44.37-.9.37-1.37s-.12-.94-.37-1.39c-.25-.44-.59-.79-1.03-1.02-.44-.24-.9-.36-1.36-.36ZM342.76,79.14v-3.57h1.23c.42,0,.72.03.91.1.19.07.34.18.45.35.11.16.17.34.17.52,0,.26-.09.49-.28.68-.19.19-.43.3-.74.33.13.05.23.12.3.19.14.14.32.38.53.71l.43.7h-.7l-.32-.56c-.25-.44-.45-.72-.6-.83-.11-.08-.26-.12-.46-.12h-.34v1.52h-.58ZM343.34,77.13h.7c.33,0,.56-.05.68-.15.12-.1.18-.23.18-.4,0-.11-.03-.2-.09-.28-.06-.08-.14-.15-.24-.19-.1-.04-.3-.06-.58-.06h-.66v1.08Z"/>
</svg>