<?xml version="1.0" encoding="UTF-8"?>
<svg id="new_type" data-name="new type" xmlns="http://www.w3.org/2000/svg" viewBox="0 0 314.48 80.96">
  <defs>
    <style>
      .cls-1 {
        stroke-width: .75px;
      }

      .cls-1, .cls-2 {
        fill: none;
        stroke: #008348;
      }

      .cls-3 {
        fill: #006bb6;
      }

      .cls-2 {
        stroke-width: .75px;
      }

      .cls-4 {
        fill: #008348;
      }
    </style>
  </defs>
  <line class="cls-1" y1="40.78" x2="314.48" y2="40.78"/>
  <path class="cls-4" d="M29.91,16.22c-6.18,2.7-11.13,7.67-13.82,13.86h.01s10.26.03,10.26.03c1.97,0,3.58-1.6,3.58-3.58v-10.37s-.03.06-.03.06Z"/>
  <path class="cls-4" d="M16.09,51.38c2.68,6.18,7.63,11.14,13.79,13.85h.03s.02-10.25.02-10.25c0-1.98-1.6-3.58-3.58-3.58h-10.25s-.01-.02-.01-.02Z"/>
  <line class="cls-2" x1="40.61" y1="80.96" x2="40.61"/>
  <path class="cls-4" d="M51.2,65.3c6.25-2.69,11.26-7.7,13.97-13.94l-.06.02-10.35-.02c-1.98,0-3.58,1.6-3.58,3.58v10.31s.03.05.03.05Z"/>
  <path class="cls-4" d="M65.17,30.08c-2.71-6.24-7.73-11.24-13.98-13.93l.02.05-.02,10.33c0,1.98,1.6,3.58,3.58,3.58h10.35s.06-.04.06-.04Z"/>
  <path class="cls-3" d="M67.19,38.11l-15.17.02c-4.86,0-8.8-3.94-8.8-8.8v-15.24s-.01.02-.01.02c2.32.22,4.56.74,6.67,1.52v.04s0,11.37,0,11.37c0,2.43,1.97,4.4,4.4,4.4l11.37-.02.06-.02c.79,2.12,1.32,4.37,1.55,6.71h-.05Z"/>
  <path class="cls-3" d="M15.55,31.43c-.78,2.12-1.31,4.36-1.54,6.69l.06-.04,15.03.04c4.86,0,8.8-3.94,8.8-8.8l-.02-15.14v-.04c-2.32.24-4.55.77-6.66,1.56v.02s.04,11.32.04,11.32c0,2.43-1.97,4.4-4.4,4.4h-11.3s-.02,0-.02,0Z"/>
  <path class="cls-3" d="M15.61,50.1l11.25-.03c2.43,0,4.4,1.97,4.4,4.4v11.23s-.03.06-.03.06c2.11.79,4.34,1.32,6.66,1.56v-.04l.02-14.96c0-4.86-3.94-8.8-8.8-8.8h-15.06s0,0,0,0c.23,2.27.75,4.46,1.52,6.52l.05.06Z"/>
  <path class="cls-3" d="M43.21,67.35c2.33-.23,4.58-.75,6.7-1.53l-.02-.07-.03-11.31c0-2.43,1.97-4.4,4.4-4.4l11.43.02h.01c.77-2.08,1.29-4.27,1.52-6.54h-.05l-14.99.04c-4.86,0-8.97,3.82-8.97,8.68v15.06s0,.06,0,.06Z"/>
  <path class="cls-4" d="M41.88,13.84v16.31c0,5.12,4.15,9.27,9.27,9.27l16.11.02c0,.12,0,.35,0,.62h6.2v1.39l-6.2-.06c0,.27,0,.5-.01.62l-16.1.06c-5.12,0-9.27,4.15-9.27,9.27v16.21c-.08,0-.65,0-.65,0v5.9h-1.37v-5.9s-.53,0-.64,0l.04-16.21c0-5.12-4.15-9.27-9.27-9.27l-16.06-.02-.04-.61h-5.99v-1.39h5.99l.03-.66,16.07.04c5.12,0,9.27-4.15,9.27-9.27l-.04-16.32c.07,0,.71-.01.71-.01v-5.9h1.37v5.9s.49,0,.58,0Z"/>
  <path class="cls-3" d="M80.38,31.34l1.46-.5c.99-.31,1.02-.71,1.02-2.91v-12.71c0-2.08,0-2.6-1.02-2.95l-1.46-.46v-.62h14.6l.22.22v4.62h-.84l-.84-1.58c-1.02-1.89-1.46-2.02-4.12-2.02-3.97,0-3.97.15-3.97,1.46v5.36c0,1.08.06,1.15,1.4,1.15h2.33c1.12,0,1.43-.09,2.02-1.55l.43-1.05h.62v6.45h-.62l-.4-.96c-.65-1.55-.77-1.64-2.02-1.64h-2.42c-1.27,0-1.33.12-1.33,1.43v5.27c0,1.74,0,2.39,4.06,2.39,3.72,0,4.06-.53,5.18-2.91l.68-1.46h.81v5.36l-.22.25h-15.56v-.62Z"/>
  <path class="cls-3" d="M96.13,37.54l1.36-.43c.96-.31.96-.47.96-2.05v-15.19c0-1.27-.03-1.4-.93-1.64l-1.27-.34v-.5l4.09-.68c.25.59.34,1.24.81,1.24.62,0,1.4-.71,2.6-1.15.4-.12,1.08-.25,1.61-.25,4.15,0,5.86,2.39,5.86,7.53,0,5.58-3.22,8.28-7.57,8.28-.4,0-.93-.06-1.36-.09-.43-.06-.84-.09-1.02-.09-.4,0-.47.34-.47.77v2.11c0,1.74,0,1.77,1.15,2.05l1.89.43v.62h-7.72v-.62ZM100.81,27.62c0,2.48.68,3.5,3.6,3.5,3.35,0,4.28-2.17,4.28-5.92s-.87-7.19-4.25-7.19c-3.01.06-3.63,1.21-3.63,3.78v5.83Z"/>
  <path class="cls-3" d="M112.03,31.34l1.4-.43c.93-.28.93-.4.93-2.08v-15.84c0-1.18-.03-1.52-.96-1.77l-1.36-.34v-.56l4.43-.68.25.19v7.29c0,.5,0,.9.34.9.87,0,1.36-1.46,4.37-1.46,1.43,0,4.5.09,4.5,4.81v7.47c0,1.58,0,1.77.93,2.08l1.4.43v.62h-7.01v-.62l1.4-.43c.93-.31.93-.5.93-2.08v-6.08c0-2.57-.43-4.74-3.66-4.74-2.54,0-3.19,1.4-3.19,3.19v7.63c0,1.58-.03,1.77.96,2.08l1.36.43v.62h-7.01v-.62Z"/>
  <path class="cls-3" d="M128.21,31.34l1.36-.43c.96-.31.96-.5.96-2.08v-8.99c0-1.27-.03-1.33-.96-1.61l-1.27-.34v-.5l4.25-.68c.19.68.28,1.43.65,1.43.19,0,1.05-.59,1.95-1.18.4-.25.99-.4,1.46-.4.93,0,1.92.37,1.92,1.09,0,.19-.09.37-.12.53l-.71,1.86h-.47c-.28-.81-.46-1.52-1.98-1.52-1.92,0-2.36,1.02-2.36,2.39v7.94c0,1.71,0,1.83.99,2.08l1.58.43v.62h-7.26v-.62Z"/>
  <path class="cls-3" d="M147.37,31.96c-.22-.43-.4-.96-.77-.96-.93,0-1.49,1.36-4.15,1.36s-4.25-1.61-4.25-4.09,2.67-3.72,3.16-3.91c1.89-.65,5.21-1.09,5.46-1.27.22-.16.28-.37.28-.68,0-2.98-.65-4.19-3.04-4.19-1.74,0-3.1,1.12-3.94,1.86l-.47-.5,1.83-1.86c.15-.16.25-.25.43-.4.4-.31,1.67-.77,3.29-.77,3.41,0,4.22,1.83,4.22,4.77v7.5c0,1.55-.03,1.8.93,2.08l1.4.43v.62h-4.37ZM147.06,25.33c0-.65,0-.87-.78-.87-.62,0-2.79.31-3.88.68-1.08.31-1.67,1.15-1.67,2.36,0,2.17,1.18,3.41,3.07,3.41,1.18-.03,1.92-.4,2.48-.78.74-.5.78-1.92.78-2.7v-2.11Z"/>
  <path class="cls-3" d="M151.56,31.34l1.4-.43c.93-.31.93-.47.93-2.08v-8.96c0-1.33-.03-1.4-1.05-1.64l-1.33-.34v-.5l4.56-.68.19.22v11.91c0,1.58,0,1.77.96,2.08l1.36.43v.62h-7.01v-.62ZM153.48,11.93c0-.99.65-1.61,1.61-1.61s1.61.62,1.61,1.61-.68,1.61-1.61,1.61-1.61-.59-1.61-1.61Z"/>
  <path class="cls-3" d="M158.75,31.34l1.36-.43c.96-.28.96-.47.96-2.08v-8.96c0-1.27-.06-1.4-.96-1.64l-1.24-.34v-.5l4.19-.68c.4.96.4,1.3.74,1.3s1.02-.47,1.8-.9c.77-.4,1.36-.56,2.36-.56,3.04,0,3.63,1.64,4.06,1.64.59,0,2.51-1.3,3.01-1.43.53-.12,1.18-.22,1.95-.22,3.69,0,4.31,2.23,4.31,5.67v6.6c0,1.67,0,1.8.93,2.08l1.4.43v.62h-7.01v-.62l1.36-.43c.93-.28.96-.5.96-2.08v-6.26c0-3.22-1.08-4.56-3.41-4.56s-3.16,1.08-3.16,3.75v7.07c0,1.67,0,1.77.96,2.08l1.36.43v.62h-7.01v-.62l1.36-.43c.93-.28.96-.31.96-2.08v-6.95c0-1.77-.59-3.88-3.22-3.88-2.23,0-3.35,1.21-3.35,3.26v7.57c0,1.61-.03,1.8.93,2.08l1.4.43v.62h-7.01v-.62Z"/>
  <path class="cls-3" d="M190.96,31.34l1.27-.5c1.18-.43,1.18-.65,1.33-3.13l.78-12.28c0-.34.06-.68.06-1.02,0-1.27-.03-1.52-1.15-2.02l-1.33-.59v-.62h4.96l.25.22c.22.56.84,2.29,1.49,3.84l4.81,11.81c.19.46.25.71.47.71.19,0,.15,0,.4-.59l3.88-8.81c.96-2.17,2.45-5.95,2.79-6.98l.22-.22h5.02v.62l-.93.37c-1.33.56-1.46.77-1.46,1.8,0,.59,0,1.21.03,1.8l.4,13.3c.03,1.18,0,1.43,1.21,1.89l.96.37v.62h-7.38v-.62l1.74-.56c.96-.28.96-.68.96-1.64v-.81l-.31-12.15c0-.34-.06-.5-.22-.5-.12,0-.28.06-.43.43l-5.39,12.34c-.43.99-1.21,2.91-1.36,3.29l-.25.22h-.96l-.25-.12c-.22-.59-.84-2.2-1.39-3.63l-4.4-11.19c-.4-.96-.46-1.33-.71-1.33-.22,0-.31.37-.31.9l-.68,11.41v1.18c0,1.12.65,1.4,1.55,1.67l1.46.5v.62h-7.1v-.62Z"/>
  <path class="cls-3" d="M228.5,29.79c-.65.87-1.49,1.77-1.77,1.92-.68.34-1.64.65-3.16.65-4.65,0-6.45-3.1-6.45-7.97,0-5.52,3.5-7.84,7.35-7.84,1.86,0,4.46.81,4.46,2.26,0,.25-.12.53-.25.78l-1.12,2.11h-.56c-.03-1.43-.93-3.91-3.78-3.91-2.7,0-3.57,3.16-3.57,6.54,0,3.84,1.4,6.36,4.68,6.36,2.54,0,3.72-1.49,4.53-2.42l.46.4-.84,1.12Z"/>
  <path class="cls-3" d="M229.52,31.34l1.46-.5c.99-.31,1.02-.77,1.02-2.91v-12.71c0-2.11,0-2.57-1.02-2.95l-1.46-.46v-.62h11.66c7.32,0,7.5,7.38,7.5,9.55,0,7.78-3.63,11.22-10.29,11.22h-8.87v-.62ZM234.57,28.61c0,2.11,3.07,2.11,4.65,2.11,5.3,0,6.54-3.57,6.54-9.7s-2.76-8.59-7.41-8.59c-3.47,0-3.78.06-3.78,1.67v14.51Z"/>
  <path class="cls-3" d="M250.13,24.3c0-5.67,3.66-7.75,7.22-7.75,3.97,0,6.42,2.14,6.42,7.01,0,5.86-2.57,8.81-7.38,8.81-4.5,0-6.26-3.22-6.26-8.06ZM257.17,31.13c3.29,0,4.06-2.88,4.06-6.76s-1.4-6.57-4.59-6.57c-2.82,0-3.97,2.2-3.97,6.02,0,5.12,1.61,7.32,4.5,7.32Z"/>
  <path class="cls-3" d="M269.95,31.71c-.25-.71-.81-2.64-1.4-4.43l-2.67-8c-.28-.87-.46-1.12-1.02-1.33l-.96-.37v-.62h6.36v.62l-1.18.37c-.53.19-.84.31-.84.65,0,.28.19.84.4,1.52l2.45,7.94c.16.53.22.77.4.77s.19-.19.34-.53l2.76-7.22c.12-.31.25-.68.25-1.02,0-.19-.06-.37-.12-.56l-.22-.59c-.19-.5-.31-.65-.74-.84l-1.36-.5v-.62h6.42v.62l-1.24.47c-.4.15-.59.25-.59.56,0,.16.28,1.05.56,1.86l2.73,7.91c.09.28.19.47.34.47.12,0,.19-.06.31-.53l1.15-4.19c.93-3.35,1.36-5.12,1.36-5.46,0-.25-.25-.43-.59-.56l-1.55-.53v-.62h5.86v.62l-.93.37c-.77.31-.87.74-1.43,2.45l-1.98,6.08c-.78,2.39-1.46,4.62-1.64,5.24l-.22.25h-1.64l-.22-.25c-.12-.31-.4-1.12-.62-1.77l-2.51-7.01c-.12-.4-.22-.53-.37-.53-.25,0-.31.19-.4.47l-1.92,4.93c-.56,1.46-1.21,3.29-1.4,3.91l-.19.25h-1.49l-.25-.25Z"/>
  <path class="cls-3" d="M297.6,31.37c-.77.59-2.45.99-3.94.99-4.12,0-6.42-2.91-6.42-8.19,0-4.9,3.13-7.63,7.04-7.63,1.98,0,5.43.71,5.43,6.51,0,.68-.06.71-.34.9-.31.22-.34.22-.84.22h-7.35c-.9,0-1.4,0-1.4.93,0,1.67.81,5.58,5.3,5.58,1.58,0,2.85-.47,3.78-1.02l.28.53-1.55,1.18ZM296.2,22.94c.77,0,1.05-.09,1.05-.81,0-2.11-1.49-4.34-3.94-4.34s-3.47,2.42-3.47,4.12c0,1.02.34,1.02,1.21,1.02h5.15Z"/>
  <path class="cls-3" d="M299.98,31.34l1.4-.43c.93-.28.93-.5.93-2.08v-15.84c0-1.18-.03-1.52-.96-1.77l-1.36-.34v-.56l4.43-.68.25.19v19.01c0,1.58-.03,1.77.96,2.08l1.36.43v.62h-7.01v-.62Z"/>
  <path class="cls-3" d="M307.02,31.34l1.4-.43c.93-.28.93-.5.93-2.08v-15.84c0-1.18-.03-1.52-.96-1.77l-1.36-.34v-.56l4.43-.68.25.19v19.01c0,1.58-.03,1.77.96,2.08l1.36.43v.62h-7.01v-.62Z"/>
  <path class="cls-4" d="M162.64,62.46l1.17-.4c.8-.25.82-.62.82-2.35v-10.25c0-1.7,0-2.1-.82-2.37l-1.17-.37v-.5h6.07v.5l-1.17.37c-.85.28-.82.62-.82,2.37v3.45c0,.75.17.75.97.75h6.15c.8,0,.97,0,.97-.75v-3.45c0-1.75.02-2.1-.83-2.37l-1.17-.37v-.5h6.07v.5l-1.17.37c-.83.28-.83.67-.83,2.37v10.25c0,1.72.03,2.1.83,2.35l1.17.4v.5h-6.07v-.5l1.17-.4c.85-.28.83-.6.83-2.35v-4.12c0-.83-.08-.92-.88-.92h-6.35c-.8,0-.87.1-.87.92v4.12c0,1.75-.02,2.07.82,2.35l1.17.4v.5h-6.07v-.5Z"/>
  <path class="cls-4" d="M188.06,62.49c-.62.47-1.97.8-3.17.8-3.32,0-5.17-2.35-5.17-6.6,0-3.95,2.52-6.15,5.67-6.15,1.6,0,4.37.58,4.37,5.25,0,.55-.05.57-.28.72-.25.17-.27.17-.67.17h-5.92c-.73,0-1.12,0-1.12.75,0,1.35.65,4.5,4.27,4.5,1.28,0,2.3-.38,3.05-.83l.22.42-1.25.95ZM186.94,55.69c.62,0,.85-.07.85-.65,0-1.7-1.2-3.5-3.17-3.5s-2.8,1.95-2.8,3.32c0,.82.28.82.97.82h4.15Z"/>
  <path class="cls-4" d="M197.84,62.96c-.17-.35-.33-.77-.62-.77-.75,0-1.2,1.1-3.35,1.1s-3.42-1.3-3.42-3.3,2.15-3,2.55-3.15c1.52-.53,4.2-.88,4.4-1.03.18-.12.23-.3.23-.55,0-2.4-.53-3.37-2.45-3.37-1.4,0-2.5.9-3.17,1.5l-.38-.4,1.47-1.5c.12-.12.2-.2.35-.33.32-.25,1.35-.62,2.65-.62,2.75,0,3.4,1.47,3.4,3.85v6.05c0,1.25-.02,1.45.75,1.67l1.12.35v.5h-3.52ZM197.59,57.61c0-.52,0-.7-.62-.7-.5,0-2.25.25-3.12.55-.88.25-1.35.92-1.35,1.9,0,1.75.95,2.75,2.47,2.75.95-.03,1.55-.33,2-.62.6-.4.62-1.55.62-2.17v-1.7Z"/>
  <path class="cls-4" d="M201.21,62.46l1.12-.35c.75-.22.75-.4.75-1.67v-12.77c0-.95-.02-1.22-.77-1.42l-1.1-.27v-.45l3.57-.55.2.15v15.32c0,1.28-.03,1.42.77,1.67l1.1.35v.5h-5.65v-.5Z"/>
  <path class="cls-4" d="M212.66,62.96c-.7.28-.85.33-1.4.33-2.1,0-2.72-.67-2.72-2.92v-7.7c0-.55-.1-.73-.65-.85l-1.15-.25v-.5l1.28-.25c.7-.12.7-.3.87-1l.62-2.3h.55l.45,2.55c.08.6.15.6,1.1.75l1.57.25v.5l-1.57.25c-1.17.2-1.17.28-1.17,1.25v5.87c0,2.22.42,3.25,2.27,3.25.23,0,.6-.05.83-.08l.12.45-1,.4Z"/>
  <path class="cls-4" d="M213.49,62.46l1.12-.35c.75-.22.75-.33.75-1.67v-12.77c0-.95-.03-1.22-.78-1.42l-1.1-.27v-.45l3.57-.55.2.15v5.87c0,.4,0,.72.27.72.7,0,1.1-1.17,3.52-1.17,1.15,0,3.62.08,3.62,3.87v6.02c0,1.28,0,1.42.75,1.67l1.12.35v.5h-5.65v-.5l1.12-.35c.75-.25.75-.4.75-1.67v-4.9c0-2.07-.35-3.82-2.95-3.82-2.05,0-2.57,1.12-2.57,2.57v6.15c0,1.28-.03,1.42.77,1.67l1.1.35v.5h-5.65v-.5Z"/>
  <path class="cls-4" d="M227.93,60.84c0-1.13.97-2.03,2.11-2.03s2.11.89,2.11,2.03-.97,2.03-2.11,2.03-2.11-.89-2.11-2.03ZM230.03,62.55c.97,0,1.79-.76,1.79-1.71s-.82-1.71-1.79-1.71-1.79.76-1.79,1.71.82,1.71,1.79,1.71ZM228.99,61.78c.26-.03.33-.04.33-.36v-1.29c0-.3-.07-.29-.33-.32v-.18h1.1c.56,0,.98.09.98.58,0,.44-.4.52-.66.58.56.33.38.83.61.83.13,0,.14-.23.14-.3h.18c0,.2-.08.62-.48.62-.77,0-.29-1.1-.95-1.1h-.1v.54c0,.35.04.34.34.39v.17h-1.17v-.17ZM229.82,60.67h.19c.26,0,.51-.06.51-.41,0-.27-.08-.45-.39-.45s-.31.12-.31.34v.51Z"/>
</svg>