<?xml version="1.0" encoding="UTF-8"?>
<svg id="Layer_1" data-name="Layer 1" xmlns="http://www.w3.org/2000/svg" viewBox="0 0 415.83 166.9">
  <defs>
    <style>
      .cls-1 {
        fill: #fff;
      }

      .cls-2 {
        fill: #ed1c24;
      }

      .cls-3 {
        fill: #006bb6;
      }

      .cls-4 {
        fill: #0078a9;
      }
    </style>
  </defs>
  <g>
    <g>
      <path class="cls-3" d="M39.52,69.71l6.24-16.62h-1.64c-3.32,6.56-5.08,9.88-17.69,9.88.17,0-2.35,0-2.35,0l5.84-47.44c.68-5.56.71-11.58,5.66-14.99l.04-.32-22.59.03-.04.32c4.05,3.22,2.64,9.31,1.95,14.87-1.14,9.3-3.55,29-4.77,38.88-.69,5.56-.68,11.65-5.63,15.07l-.04.32h35.02Z"/>
      <path class="cls-3" d="M48.18,43.35c1.92-15.67,9.65-26.32,26.73-26.32,16.62,0,22.19,10.65,20.27,26.32-1.92,15.67-11.2,27.68-26.9,27.68-16.62,0-22.02-12.02-20.1-27.68ZM68.95,65.63c9.23,0,12.28-9.67,13.75-21.6,1.46-11.93.32-21.6-8.45-21.6-9.23,0-12.28,9.67-13.75,21.6-1.46,11.93-1.71,21.6,8.45,21.6Z"/>
      <path class="cls-3" d="M231.61,43.25c1.92-15.67,9.65-26.32,26.73-26.32s22.19,10.65,20.27,26.32c-1.92,15.67-11.2,27.68-26.9,27.68-16.62,0-22.02-12.02-20.1-27.68ZM252.37,65.53c9.23,0,12.28-9.67,13.75-21.6,1.46-11.93.32-21.6-8.45-21.6-9.23,0-12.28,9.67-13.75,21.6-1.46,11.93-1.71,21.6,8.45,21.6Z"/>
      <path class="cls-3" d="M176.07,68.58c-5.11,1.62-9.68,2.59-16.93,2.59-16.53,0-21.91-11.96-20-27.55,1.91-15.59,9.6-26.19,26.6-26.19,9.3,0,15.46.16,15.46.16l-1.68,13.68-.54-.1c-.95-2.47-2.54-4.88-5-6.63-2.96-2.1-7.87-3.45-13.37-.6-4.08,2.12-7.76,8.49-9.22,20.35-1.46,11.87-1.7,21.49,8.4,21.49,2.04,0,3.92-.99,5.4-1.86,0,0,.51-3.98,1.03-7.99.54-4.23,1.57-8.87-1.51-11.31l.03-.24,17.19-.02-.03.24c-3.77,2.6-3.78,7.22-4.3,11.45l-1.54,12.52Z"/>
      <path class="cls-3" d="M333.95,58.13c.75-6.09,2.82-23,2.82-23l15.73,34.58h8.37l4.96-40.39c.52-4.23.54-8.85,4.3-11.45l.03-.24h-12.59s-.03.24-.03.24c3.08,2.45,2.03,7.07,1.51,11.3-.88,7.2-2.66,21.67-2.66,21.67l-15.5-33.24-11.69.05-.03.24c3.08,2.45,2.03,7.08,1.51,11.31-.85,6.9-2.68,21.8-3.54,28.79-.52,4.23-.54,8.87-4.31,11.46l-.03.24h12.62s.03-.25.03-.25c-3.08-2.45-2.02-7.1-1.51-11.33Z"/>
      <path class="cls-3" d="M104.6,58.13c.75-6.09,2.82-23,2.82-23l15.73,34.58h8.37s4.96-40.39,4.96-40.39c.52-4.23.54-8.85,4.3-11.45l.03-.24h-12.59s-.03.24-.03.24c3.08,2.45,2.03,7.07,1.51,11.3-.88,7.2-2.66,21.67-2.66,21.67l-15.5-33.24-11.69.05-.03.24c3.08,2.45,2.03,7.08,1.51,11.31-.85,6.9-2.68,21.8-3.54,28.79-.52,4.23-.54,8.87-4.31,11.46l-.03.24h12.62s.03-.25.03-.25c-3.08-2.45-2.02-7.1-1.51-11.33Z"/>
      <path class="cls-3" d="M231.09,15.36c-1.62,13.24-4.64,37.68-5.26,42.74-.83,6.74-7.61,17.52-20.34,17.52-12.73,0-15.49-7.19-16.58-9.43-.16-.33-.25-.6-.28-.82l.89-.7c.39.28.83.84,1.64,1.51,1.19.98,4.55,3.91,9.55,3.91s9.42-6.29,9.92-10.33c.4-3.24,3.75-30.54,5.46-44.5.68-5.56,2.1-11.66-1.94-14.88l.04-.32,22.59-.03-.04.32c-4.95,3.41-4.98,9.48-5.66,15.04Z"/>
      <path class="cls-3" d="M319.27,58.1c.93-7.55,2.58-21.12,3.53-28.84.52-4.23.53-8.84,4.3-11.44l.03-.24-17.19.02-.03.24c3.08,2.45,2.01,7.08,1.49,11.31-.61,4.96-1.35,10.91-1.35,10.91h-15.69s1.33-10.77,1.33-10.77c.52-4.23.55-8.86,4.31-11.46l.03-.24-17.19.02-.03.24c3.08,2.45,2.03,7.08,1.51,11.31-.99,8.04-2.61,21.26-3.55,28.87-.52,4.23-.54,8.84-4.3,11.43l-.03.24,17.19-.02.03-.24c-3.08-2.45-2.03-7.11-1.51-11.34.63-5.15,1.49-12.2,1.49-12.2h15.69s-.85,6.79-1.5,12.11c-.52,4.23-.55,8.86-4.32,11.45l-.03.24,17.27-.02.03-.24c-3.08-2.45-2.04-7.11-1.52-11.34Z"/>
      <path class="cls-3" d="M57.93,133.74c.91-7.42,2.6-21.24,3.53-28.84.52-4.23.54-8.84,4.3-11.44l.03-.24-17.19.02-.03.24c3.08,2.45,2.04,7.09,1.52,11.32-.98,8.01-2.6,21.18-3.53,28.81-.52,4.23-.54,8.89-4.31,11.48l-.03.24,17.19-.02.03-.24c-3.08-2.45-2.03-7.1-1.51-11.33Z"/>
      <path class="cls-3" d="M135.88,104.79c.52-4.23,1.57-8.88-1.51-11.33l.03-.24h17.47s14.38.01,14.38.01l-1.36,11.12h-1.36c-.39-2.36-.37-6.74-8.04-6.74-7.67,0-7.33,0-7.33,0l-2.31,18.84c3.58,0,12.36-.67,13.04-6.23h1.02s-1.99,16.22-1.99,16.22h-1.02c.5-4.04-3.03-5.9-11.55-5.9l-2.38,19.34s8.53,0,10.06,0c1.53,0,5.13-1.52,7.93-6.23h1.36s-4.33,11.68-4.33,11.68h-12.05s-17.94.02-17.94.02l.03-.24c3.77-2.6,3.78-7.22,4.3-11.45l3.55-28.87Z"/>
      <path class="cls-3" d="M211.41,155.46c-7.33,0-13.84-.58-15.44-2.77-1.61-2.19-15.77-31.5-15.77-31.5,0,0-.85,7-1.54,12.59-.52,4.23-1.57,8.87,1.51,11.32l-.03.24-17.19.02.03-.24c3.77-2.6,3.7-7.23,4.21-11.46l3.54-28.85c.52-4.23,1.48-8.89-1.59-11.34l.02-.24h20.69c5.35,0,8.76.35,11.39,3.2,1.95,2.11,3.08,4.84,2.66,8.25-1.11,9.1-9.83,13.49-12.69,13.89,0,0,9.11,21.16,15.62,31.49,1.24,1.97,2.74,3.67,4.6,5.15l-.03.24ZM186.95,116.46c3.18-.62,5.75-5.2,6.3-8.23.54-3.03.84-6.77-1.93-9.26-1.69-1.51-6.89-.84-8.61.67l-2.11,17.18s3.26.24,6.35-.36Z"/>
      <path class="cls-3" d="M2,124.7l-2,16.32c2.72,4.46,11.48,5.47,17.53,5.68,6.05.21,23.69-4.44,25.55-19.6,1.56-12.73-8.01-18.52-12.21-22.39-3.79-3.5-9.47-8.55-8.71-14.71.76-6.15,4.83-7.25,8.6-7.47,3.77-.23,10.16,1.29,12.45,11.17h1.64s1.89-15.39,1.89-15.39c0,0-9.55-2.18-18.05-1.51-8.5.67-23.34,4.66-22.72,19.38.43,10.05,7.22,15.78,9.97,18.6,2.72,2.79,13.6,7.97,11.85,16.54-1.75,8.57-7.81,8.76-10.38,8.79-4.57.05-14.45-5.08-13.18-15.41h-2.22Z"/>
      <path class="cls-3" d="M207.63,129.6l-1.51,12.32c2.06,3.37,8.67,4.13,13.24,4.29,4.57.16,17.88-3.35,19.28-14.8,1.18-9.61-6.05-13.98-9.22-16.9-2.86-2.64-7.15-6.46-6.58-11.1.57-4.65,3.65-5.47,6.49-5.64,2.84-.17,7.67.97,9.4,8.43h1.24s1.43-11.62,1.43-11.62c0,0-7.21-1.65-13.62-1.14-6.41.51-17.62,3.52-17.15,14.63.32,7.58,5.45,11.91,7.52,14.04,2.05,2.11,10.27,6.02,8.94,12.49-1.32,6.47-5.89,6.61-7.83,6.63-3.45.04-10.91-3.84-9.95-11.63h-1.68Z"/>
      <path class="cls-3" d="M236.27,150.29c.31-2.53,2.62-4.32,5.18-3.98,2.54.34,4.33,2.68,4.02,5.21-.31,2.56-2.61,4.35-5.16,4.01-2.55-.34-4.36-2.68-4.04-5.24ZM244.92,151.45c.27-2.23-1.31-4.28-3.54-4.58-2.24-.3-4.27,1.27-4.54,3.5-.28,2.26,1.31,4.31,3.55,4.61,2.23.3,4.26-1.27,4.53-3.53ZM242.86,153.8l-.75-.1-1.18-2.57-1.16-.15-.29,2.38-.63-.08.63-5.15,2.24.3c.43.06.86.14,1.22.42.36.27.5.75.44,1.19-.12,1.01-.88,1.29-1.8,1.19l1.26,2.58ZM240.8,150.6c.72.1,1.83.37,1.96-.68.1-.8-.59-.99-1.23-1.07l-1.47-.2-.22,1.82.96.13Z"/>
      <path class="cls-3" d="M131.49,97.79l-22.4,47.54h-6.34s-10.24-46.04-10.76-48.28c-.07-.29-.12-.51-.19-.76-.31-1.11-.84-2.05-1.8-2.82l.03-.24,15.92-.02-.03.24c-4.45,1.43-2.25,5.6-1.13,10.33,2.14,9.06,5.73,24.4,6.1,25.27.53,1.24.85-.45.85-.45,0,0,7.33-16.61,10.69-24.74,1.9-4.61,3.33-8.91-1.12-10.34l-.03-.24,13.85.02.03.24c-.96.77-2.71,2.26-3.66,4.25Z"/>
      <path class="cls-3" d="M61.81,145.34h17.97s12.05,0,12.05,0l4.33-11.68h-1.36c-2.8,4.72-6.39,6.23-7.93,6.23-1.53,0-10.1-.06-10.1-.06l4.25-34.92c.52-4.23.54-8.86,4.3-11.45l.03-.24-17.19.02-.03.24c3.08,2.45,2.03,7.09,1.51,11.32-.73,5.95-1.69,13.81-1.69,13.81,0,0-1.07,8.74-1.84,15-.52,4.23-.54,8.86-4.3,11.46v.26Z"/>
      <path class="cls-3" d="M202.85,91.75c1.43,1.27,4.3,3.69,5.43,8.48.91-1.66,5.35-11.24,2.33-14.83-1.57-1.87-2.72-2.12-2.72-2.12l-5.05,8.47Z"/>
    </g>
    <path class="cls-3" d="M301.79,166.9c-7.87-21.17-34.13-67.11-49.93-83.59v4.51c13.99,15.57,39.46,59.65,46.83,79.07h3.1Z"/>
    <path class="cls-3" d="M415.11,127.93h-.78v-4.25l-1.72,4.25h-.46l-1.67-4.25v4.25h-.79v-4.95h1.27l1.42,3.49,1.47-3.49h1.25v4.95ZM408.83,123.69h-1.56v4.25h-.87v-4.25h-1.58v-.71h4.01v.71Z"/>
  </g>
  <path class="cls-2" d="M339.07,126.52c-.56.01-1.14.05-1.76.11,1.48,1.94,3.11,10.53,3.11,10.53h0c-.02-.2,0-.42.06-.66.01-.06.03-.12.04-.18.06-.24.15-.5.28-.78,0,0,0,0,0,0,.13-.28.31-.58.52-.9.05-.08.1-.16.16-.24.22-.33.47-.67.77-1.03,4.18-5.12,2.03-6.99-3.19-6.85Z"/>
  <g>
    <path class="cls-1" d="M339.37,111.36s0,0-.01-.02c.04.1.08.2.12.3-.03-.09-.07-.19-.1-.28Z"/>
    <polygon class="cls-1" points="337.05 105.58 337.05 105.59 337.05 105.59 337.05 105.58"/>
    <path class="cls-1" d="M335.07,103.49c-.14-.08-.27-.16-.42-.23,0,0,0,0,0,0-1.49-.68-3.53-.97-5.95-.93,0,0,0,0,0,0-.25,0-.51.01-.78.02-14.96.58-42.81,12.13-46.45,15.82,0,0-.01-.02-.02-.02,1.4,2.12,2.71,4.37,3.93,6.67-.03-.06-.06-.12-.09-.18,4.86-4.66,31.68-15.03,45.81-15.62,2.62-.11,4.79.12,6.32.78.87.38,1.54.88,1.94,1.55-.75-1.95-1.53-3.89-2.31-5.76-.36-.91-1.06-1.58-1.98-2.1Z"/>
  </g>
  <path class="cls-1" d="M343.61,123.44c12.98-2.31,42.89-10.65,55.45-16.54-1.76-.49-3.4-1-4.75-1.52.83-.71,1.97-2.17,3.24-4.01-7.03,4.48-40.74,14.22-55.61,17.01.62,1.75,1.2,3.48,1.68,5.06Z"/>
  <path class="cls-2" d="M336.2,103.27c-2.2-5.65-4.92-10.57-5.55-11.62-2.68-9.73-56.25.86-60.79,13.97.36.23.73.51,1.12.82,3.72,2.74,7.31,6.91,10.48,11.73,0,0,.01.02.02.02,3.64-3.68,31.48-15.24,46.45-15.82.26-.01.52-.02.78-.02,2.42-.03,4.47.25,5.96.94,1.15.53,1.98,1.28,2.4,2.32,0,0,0,0,0,0,0,0,0,0,0,.01,0,0,0,0,0,0,1.73,4.14,3.48,8.64,4.85,12.77,14.88-2.79,48.69-12.56,55.66-17.03,4.54-6.22,10.42-17.4,10.42-17.4-10.67,6.36-52.95,18.76-71.8,19.32Z"/>
  <path class="cls-4" d="M399.06,106.9c-12.48,5.89-42.42,14.21-55.45,16.54-1.14-3.77-2.88-8.41-4.22-12.05-4.85-8.31-47.79,7.25-54.08,13.27,3.26,6.55,6.82,15.59,7.81,20.91,3.11-6.66,33.12-18.53,45.94-19.08v.03c5.23-.14,7.38,1.73,3.2,6.85-.3.37-.54.7-.77,1.03-.06.08-.11.16-.16.24-.2.32-.38.62-.52.9,0,0,0,0,0,0-.13.28-.22.53-.28.78-.02.06-.03.12-.04.18-.05.23-.07.46-.06.66.77,8.71,62.24-14.87,75.4-26.67,0,0-9.85-1.44-16.77-3.59Z"/>
</svg>